<svg id="Layer_1" data-name="Layer 1" xmlns="http://www.w3.org/2000/svg" xmlns:xlink="http://www.w3.org/1999/xlink" viewBox="0 0 206.45 142.42"><defs><style>.cls-1,.cls-3{fill:none;}.cls-2{fill:#4fa0ca;}.cls-2,.cls-3{stroke:#2e58a6;stroke-miterlimit:10;}.cls-4{clip-path:url(#clip-path);}.cls-5{fill:#fff;}.cls-6{clip-path:url(#clip-path-2);}.cls-7{clip-path:url(#clip-path-3);}.cls-8{clip-path:url(#clip-path-4);}.cls-9{clip-path:url(#clip-path-5);}.cls-10{clip-path:url(#clip-path-6);}.cls-11{clip-path:url(#clip-path-7);}.cls-12{font-size:14px;fill:#333;font-family:CMUSansSerif-Bold, CMU Sans Serif;font-weight:700;}.cls-13{letter-spacing:-0.03em;}.cls-14{font-size:12px;fill:#1a9952;font-family:CMUSansSerif, CMU Sans Serif;}.cls-15{letter-spacing:0.03em;}.cls-16{letter-spacing:-0.03em;}.cls-17{letter-spacing:0em;}</style><clipPath id="clip-path" transform="translate(-282.67 -392.58)"><rect class="cls-1" x="433.33" y="437.72" width="13.32" height="9.69"/></clipPath><clipPath id="clip-path-2" transform="translate(-282.67 -392.58)"><rect class="cls-1" x="391.07" y="459.19" width="13.32" height="9.69"/></clipPath><clipPath id="clip-path-3" transform="translate(-282.67 -392.58)"><rect class="cls-1" x="425.55" y="494.54" width="13.32" height="9.69"/></clipPath><clipPath id="clip-path-4" transform="translate(-282.67 -392.58)"><rect class="cls-1" x="469.31" y="469.67" width="13.32" height="9.69"/></clipPath><clipPath id="clip-path-5" transform="translate(-282.67 -392.58)"><rect class="cls-1" x="473.48" y="435.85" width="13.32" height="9.69"/></clipPath><clipPath id="clip-path-6" transform="translate(-282.67 -392.58)"><rect class="cls-1" x="459.75" y="412.49" width="13.32" height="9.69"/></clipPath><clipPath id="clip-path-7" transform="translate(-282.67 -392.58)"><rect class="cls-1" x="388.19" y="498.01" width="13.32" height="9.69"/></clipPath></defs><title>graph-figure</title><path d="M469.55,428.12" transform="translate(-282.67 -392.58)"/><circle class="cls-2" cx="476.39" cy="474.13" r="8.22" transform="translate(-368.56 -286.68) rotate(-11.64)"/><circle class="cls-2" cx="466.76" cy="416" r="8.22" transform="translate(-357.02 -289.82) rotate(-11.64)"/><path class="cls-2" d="M434.13,506.5a8.22,8.22,0,1,1,6.39-9.71A8.22,8.22,0,0,1,434.13,506.5Z" transform="translate(-282.67 -392.58)"/><circle class="cls-2" cx="440.65" cy="441.33" r="8.22" transform="translate(-362.67 -294.56) rotate(-11.64)"/><path class="cls-3" d="M461.52,429.78" transform="translate(-282.67 -392.58)"/><line class="cls-2" x1="163.11" y1="55.16" x2="187.06" y2="76.75"/><line class="cls-2" x1="156.04" y1="56.73" x2="151.16" y2="97.93"/><path class="cls-2" d="M399.39,470.87a8.22,8.22,0,1,1,6.39-9.71A8.22,8.22,0,0,1,399.39,470.87Z" transform="translate(-282.67 -392.58)"/><line class="cls-2" x1="121.46" y1="75.4" x2="143.93" y2="100.12"/><line class="cls-2" x1="119.77" y1="77.85" x2="113.8" y2="100.7"/><path class="cls-2" d="M399.79,509.38" transform="translate(-282.67 -392.58)"/><path class="cls-2" d="M482.7,479.71" transform="translate(-282.67 -392.58)"/><path class="cls-2" d="M429.35,506.05" transform="translate(-282.67 -392.58)"/><line class="cls-2" x1="121.14" y1="64.73" x2="149.93" y2="50.41"/><line class="cls-2" x1="114.48" y1="108.19" x2="141.75" y2="107.53"/><line class="cls-2" x1="112.33" y1="104.13" x2="151.93" y2="54.3"/><line class="cls-2" x1="157.32" y1="102.57" x2="186.88" y2="87.13"/><path class="cls-3" d="M395.69,507.59c5.23,2.1,24.22,8.95,46.23.52,18.18-7,28.25-20.44,31.82-25.76" transform="translate(-282.67 -392.58)"/><path class="cls-2" d="M456.91,510.45" transform="translate(-282.67 -392.58)"/><circle class="cls-2" cx="480.4" cy="440.03" r="8.22" transform="translate(-361.59 -286.57) rotate(-11.64)"/><line class="cls-2" x1="163.11" y1="42.33" x2="177.88" y2="28.8"/><line class="cls-2" x1="189.51" y1="29.6" x2="193.3" y2="40.53"/><line class="cls-2" x1="196.21" y1="55.67" x2="194.55" y2="73.37"/><line class="cls-2" x1="166.2" y1="48.78" x2="189.51" y2="47.45"/><g class="cls-4"><path class="cls-5" d="M440.58,438.9c0-.77-.39-1-.64-1a.79.79,0,0,0-.71.71c0,.19.06.26.23.42a1.62,1.62,0,0,1,.48,1.19c0,.61-.87,3.9-2.55,3.9-.74,0-1.1-.48-1.1-1.26a10.87,10.87,0,0,1,.84-3,1.5,1.5,0,0,0,.19-.74,1.17,1.17,0,0,0-1.19-1.19c-1.35,0-1.9,2.1-1.9,2.22a.16.16,0,0,0,.16.16c.16,0,.16,0,.26-.26.42-1.45,1-1.81,1.45-1.81.1,0,.35,0,.35.48a3,3,0,0,1-.26,1,9.31,9.31,0,0,0-.81,3,1.71,1.71,0,0,0,1.93,1.77c2.42,0,3.26-4.77,3.26-5.51" transform="translate(-282.67 -392.58)"/><path class="cls-5" d="M443.74,446.35a1.35,1.35,0,0,1-1.32-1.1,11.63,11.63,0,0,1-.13-2.19,8.12,8.12,0,0,1,.16-2.06,1.3,1.3,0,0,1,1.29-1,1.33,1.33,0,0,1,1.26.93,8.4,8.4,0,0,1,.16,2.16,11.45,11.45,0,0,1-.13,2.16,1.3,1.3,0,0,1-1.29,1.13m2.35-3.16a4.37,4.37,0,0,0-.61-2.61,2.08,2.08,0,0,0-1.74-.9c-2.39,0-2.39,2.8-2.39,3.51s0,3.45,2.39,3.45S446.1,443.93,446.1,443.19Z" transform="translate(-282.67 -392.58)"/></g><g class="cls-6"><path class="cls-5" d="M398.32,460.37c0-.77-.39-1-.64-1a.79.79,0,0,0-.71.71c0,.19.06.26.23.42a1.62,1.62,0,0,1,.48,1.19c0,.61-.87,3.9-2.55,3.9-.74,0-1.1-.48-1.1-1.26a10.87,10.87,0,0,1,.84-3,1.5,1.5,0,0,0,.19-.74,1.17,1.17,0,0,0-1.19-1.19c-1.35,0-1.9,2.1-1.9,2.22a.16.16,0,0,0,.16.16c.16,0,.16,0,.26-.26.42-1.45,1-1.81,1.45-1.81.1,0,.35,0,.35.48a3,3,0,0,1-.26,1,9.31,9.31,0,0,0-.81,3,1.71,1.71,0,0,0,1.93,1.77c2.42,0,3.26-4.77,3.26-5.51" transform="translate(-282.67 -392.58)"/><path class="cls-5" d="M402,461.43c0-.26,0-.29-.32-.29a2.8,2.8,0,0,1-2,.68v.35a3.27,3.27,0,0,0,1.48-.29v5.19c0,.32,0,.48-1,.48h-.39v.35l1.84,0,1.81,0v-.35H403c-1,0-1-.16-1-.48v-5.64" transform="translate(-282.67 -392.58)"/></g><g class="cls-7"><path class="cls-5" d="M432.8,495.71c0-.77-.39-1-.64-1a.79.79,0,0,0-.71.71c0,.19.06.26.23.42a1.62,1.62,0,0,1,.48,1.19c0,.61-.87,3.9-2.55,3.9-.74,0-1.1-.48-1.1-1.26a10.87,10.87,0,0,1,.84-3,1.5,1.5,0,0,0,.19-.74,1.17,1.17,0,0,0-1.19-1.19c-1.35,0-1.9,2.1-1.9,2.22a.16.16,0,0,0,.16.16c.16,0,.16,0,.26-.26.42-1.45,1-1.81,1.45-1.81.1,0,.35,0,.35.48a3,3,0,0,1-.26,1,9.31,9.31,0,0,0-.81,3,1.71,1.71,0,0,0,1.93,1.77c2.42,0,3.26-4.77,3.26-5.51" transform="translate(-282.67 -392.58)"/><path class="cls-5" d="M435.83,499.87c.81,0,1.35.55,1.35,1.61,0,1.26-.71,1.64-1.32,1.64a2.14,2.14,0,0,1-1.71-.71.57.57,0,0,0,.58-.58.56.56,0,1,0-1.13,0c0,1,1.06,1.58,2.29,1.58a2.18,2.18,0,0,0,2.39-2,2,2,0,0,0-1.77-1.81A2,2,0,0,0,438,497.9c0-.81-.9-1.42-2-1.42s-2,.55-2,1.39a.52.52,0,0,0,1,0,.51.51,0,0,0-.52-.52,1.92,1.92,0,0,1,1.45-.55,1,1,0,0,1,1.1,1.1,2.08,2.08,0,0,1-.42,1.23,1.37,1.37,0,0,1-1.13.42l-.32,0s-.1,0-.1.13.1.16.26.16h.55" transform="translate(-282.67 -392.58)"/></g><g class="cls-8"><path class="cls-5" d="M476.57,470.85c0-.77-.39-1-.64-1a.79.79,0,0,0-.71.71c0,.19.06.26.23.42a1.62,1.62,0,0,1,.48,1.19c0,.61-.87,3.9-2.55,3.9-.74,0-1.1-.48-1.1-1.26a10.87,10.87,0,0,1,.84-3,1.5,1.5,0,0,0,.19-.74,1.17,1.17,0,0,0-1.19-1.19c-1.35,0-1.9,2.1-1.9,2.22a.16.16,0,0,0,.16.16c.16,0,.16,0,.26-.26.42-1.45,1-1.81,1.45-1.81.1,0,.35,0,.35.48a3,3,0,0,1-.26,1,9.31,9.31,0,0,0-.81,3,1.71,1.71,0,0,0,1.93,1.77c2.42,0,3.26-4.77,3.26-5.51" transform="translate(-282.67 -392.58)"/><path class="cls-5" d="M480.27,472.62v3.74H477.6l2.68-3.74m1.93,4.09v-.35h-1.13v-4.55c0-.23,0-.29-.23-.29s-.16,0-.26.16l-3.39,4.67v.35h3v.84c0,.35,0,.48-.84.48h-.26v.35c.52,0,1.16,0,1.52,0s1,0,1.55,0V478h-.29c-.81,0-.81-.13-.81-.48v-.84Z" transform="translate(-282.67 -392.58)"/></g><g class="cls-9"><path class="cls-5" d="M480.74,437c0-.77-.39-1-.64-1a.79.79,0,0,0-.71.71c0,.19.06.26.23.42a1.62,1.62,0,0,1,.48,1.19c0,.61-.87,3.9-2.55,3.9-.74,0-1.1-.48-1.1-1.26a10.87,10.87,0,0,1,.84-3,1.5,1.5,0,0,0,.19-.74,1.17,1.17,0,0,0-1.19-1.19c-1.35,0-1.9,2.1-1.9,2.22a.16.16,0,0,0,.16.16c.16,0,.16,0,.26-.26.42-1.45,1-1.81,1.45-1.81.1,0,.35,0,.35.48a3,3,0,0,1-.26,1,9.31,9.31,0,0,0-.81,3,1.71,1.71,0,0,0,1.93,1.77c2.42,0,3.26-4.77,3.26-5.51" transform="translate(-282.67 -392.58)"/><path class="cls-5" d="M482.58,438.89a3.62,3.62,0,0,0,1,.13A2.45,2.45,0,0,0,485.7,438a.15.15,0,0,0-.13-.16s0,0-.1,0a3.94,3.94,0,0,1-1.52.29,3.8,3.8,0,0,1-1.48-.26l-.13-.06c-.16,0-.16.13-.16.29v3c0,.16,0,.29.16.29s.13,0,.23-.13a1.68,1.68,0,0,1,1.42-.64,1.08,1.08,0,0,1,.93.58,2.8,2.8,0,0,1,.23,1.29,2.51,2.51,0,0,1-.29,1.35,1.42,1.42,0,0,1-1.19.61,1.68,1.68,0,0,1-1.61-1,.52.52,0,1,0,.1-1,.5.5,0,0,0-.52.55,2,2,0,0,0,2.06,1.84,2.34,2.34,0,0,0,2.42-2.22,2.17,2.17,0,0,0-2.13-2.22,2.29,2.29,0,0,0-1.42.48v-1.9" transform="translate(-282.67 -392.58)"/></g><g class="cls-10"><path class="cls-5" d="M467,413.66c0-.77-.39-1-.64-1a.79.79,0,0,0-.71.71c0,.19.06.26.23.42a1.62,1.62,0,0,1,.48,1.19c0,.61-.87,3.9-2.55,3.9-.74,0-1.1-.48-1.1-1.26a10.87,10.87,0,0,1,.84-3,1.5,1.5,0,0,0,.19-.74,1.17,1.17,0,0,0-1.19-1.19c-1.35,0-1.9,2.1-1.9,2.22a.16.16,0,0,0,.16.16c.16,0,.16,0,.26-.26.42-1.45,1-1.81,1.45-1.81.1,0,.35,0,.35.48a3,3,0,0,1-.26,1,9.31,9.31,0,0,0-.81,3,1.71,1.71,0,0,0,1.93,1.77c2.42,0,3.26-4.77,3.26-5.51" transform="translate(-282.67 -392.58)"/><path class="cls-5" d="M470.17,421.08a1.23,1.23,0,0,1-1.13-.74,3.81,3.81,0,0,1-.23-1.42c0-1,.58-1.74,1.42-1.74a1.13,1.13,0,0,1,1,.55,2.67,2.67,0,0,1,.26,1.42,2.12,2.12,0,0,1-.29,1.39,1.15,1.15,0,0,1-1.06.55m-1.39-3.19a4.18,4.18,0,0,1,.45-2.22,1.84,1.84,0,0,1,1.55-.9,1.15,1.15,0,0,1,.93.35.48.48,0,0,0,0,1,.47.47,0,0,0,.48-.52c0-.58-.42-1.13-1.42-1.13-1.48,0-3,1.35-3,3.55,0,2.64,1.23,3.42,2.35,3.42a2.26,2.26,0,0,0,2.32-2.26,2.22,2.22,0,0,0-2.22-2.26A1.65,1.65,0,0,0,468.78,417.89Z" transform="translate(-282.67 -392.58)"/></g><path class="cls-2" d="M396.86,510a8.22,8.22,0,1,1,6.39-9.71A8.22,8.22,0,0,1,396.86,510Z" transform="translate(-282.67 -392.58)"/><g class="cls-11"><path class="cls-5" d="M395.45,499.18c0-.77-.39-1-.64-1a.79.79,0,0,0-.71.71c0,.19.06.26.23.42a1.62,1.62,0,0,1,.48,1.19c0,.61-.87,3.9-2.55,3.9-.74,0-1.1-.48-1.1-1.26a10.87,10.87,0,0,1,.84-3,1.5,1.5,0,0,0,.19-.74,1.17,1.17,0,0,0-1.19-1.19c-1.35,0-1.9,2.1-1.9,2.22a.16.16,0,0,0,.16.16c.16,0,.16,0,.26-.26.42-1.45,1-1.81,1.45-1.81.1,0,.35,0,.35.48a3,3,0,0,1-.26,1,9.31,9.31,0,0,0-.81,3,1.71,1.71,0,0,0,1.93,1.77c2.42,0,3.26-4.77,3.26-5.51" transform="translate(-282.67 -392.58)"/><path class="cls-5" d="M400.83,504.89h-.32a2.48,2.48,0,0,1-.29.9,4.73,4.73,0,0,1-1,.06h-1.87c1.06-.93,1.42-1.23,2-1.71s1.45-1.23,1.45-2.19a2.14,2.14,0,0,0-2.39-2,2,2,0,0,0-2.1,1.84.53.53,0,0,0,.52.58.54.54,0,0,0,.55-.55.51.51,0,0,0-.58-.55,1.58,1.58,0,0,1,1.48-.93,1.52,1.52,0,0,1,1.55,1.61,3.25,3.25,0,0,1-1,2l-2.45,2.42c-.1.1-.1.1-.1.39h4.19l.29-1.84" transform="translate(-282.67 -392.58)"/></g><text class="cls-12" transform="translate(0 11.86)"><tspan class="cls-13">V</tspan><tspan x="9.83" y="0">ertex</tspan></text><text class="cls-12" transform="translate(0 95.35)">Graph</text><text class="cls-14" transform="translate(12.71 27.46)">mapNeigh<tspan class="cls-15" x="50.39" y="0">b</tspan><tspan class="cls-16" x="56.93" y="0">o</tspan><tspan class="cls-17" x="62.59" y="0">rs</tspan></text><text class="cls-14" transform="translate(12.71 43.41)">reduceNeigh<tspan class="cls-15" x="61.39" y="0">b</tspan><tspan class="cls-16" x="67.93" y="0">o</tspan><tspan x="73.6" y="0">rs</tspan></text><text class="cls-14" transform="translate(12.71 59.71)">packNeigh<tspan class="cls-15" x="52.06" y="0">b</tspan><tspan class="cls-16" x="58.6" y="0">o</tspan><tspan class="cls-17" x="64.26" y="0">rs</tspan></text><text class="cls-14" transform="translate(12.71 74.23)">...</text><text class="cls-14" transform="translate(12.71 111.79)">mapEdges</text><text class="cls-14" transform="translate(12.71 126.92)">filterEdges</text><text class="cls-14" transform="translate(12.71 138.17)">...</text></svg>