<?xml version="1.0" encoding="utf-8"?>
<!-- Generator: Adobe Illustrator 21.0.0, SVG Export Plug-In . SVG Version: 6.00 Build 0)  -->
<svg version="1.1" id="Layer_1" xmlns="http://www.w3.org/2000/svg" xmlns:xlink="http://www.w3.org/1999/xlink" x="0px" y="0px"
	 viewBox="0 0 161 161" style="enable-background:new 0 0 161 161;" xml:space="preserve">
<style type="text/css">
	.st0{fill:none;stroke:#BC1E47;stroke-width:4;}
	.st1{fill:none;stroke:#FFFFFF;stroke-width:4;}
	.st2{fill:none;stroke:#FEC200;stroke-width:4;}
	.st3{fill:none;stroke:#0081CD;stroke-width:4;}
	.st4{fill:#FFFFFF;stroke:#000000;stroke-width:4;}
</style>
<line class="st0" x1="81" y1="116.8" x2="81" y2="141.8"/>
<line class="st0" x1="50" y1="63.1" x2="28.3" y2="50.6"/>
<line class="st0" x1="112" y1="63.1" x2="133.7" y2="50.6"/>
<path class="st0" d="M58,108.4c-2.8-7.7-7-14.9-12.2-21.2"/>
<path class="st0" d="M68.8,47.3c8.1,1.4,16.4,1.4,24.5,0"/>
<path class="st0" d="M116.3,87.2c-5.3,6.3-9.4,13.5-12.2,21.2"/>
<path class="st0" d="M60.2,23.9C37.6,19.9,16,35,12,57.6c-2.1,12.1,1.2,24.5,9.1,33.9"/>
<path class="st0" d="M140.9,91.6c14.8-17.6,12.5-43.8-5.1-58.6c-9.4-7.9-21.8-11.2-33.9-9.1"/>
<path class="st0" d="M41.9,127.6c7.9,21.6,31.7,32.7,53.3,24.9c11.6-4.2,20.7-13.3,24.9-24.9"/>
<path class="st1" d="M21.1,91.6c-7.9,21.6,3.3,45.5,24.9,53.3c11.6,4.2,24.4,3.1,35-3.1"/>
<path class="st1" d="M101.8,23.9C87,6.3,60.8,4,43.2,18.7c-9.4,7.9-14.8,19.6-14.9,31.9"/>
<path class="st1" d="M120.1,127.6c22.6-4,37.7-25.6,33.7-48.2c-2.1-12.1-9.5-22.6-20.1-28.8"/>
<line class="st2" x1="58" y1="108.4" x2="41.9" y2="127.6"/>
<line class="st3" x1="45.7" y1="87.2" x2="21.1" y2="91.6"/>
<line class="st2" x1="68.8" y1="47.3" x2="60.2" y2="23.9"/>
<line class="st3" x1="93.2" y1="47.3" x2="101.8" y2="23.9"/>
<line class="st2" x1="116.3" y1="87.2" x2="140.9" y2="91.6"/>
<line class="st3" x1="104" y1="108.4" x2="120.1" y2="127.6"/>
<path class="st3" d="M81,116.8c-7.1-4.1-14.9-7-23-8.4"/>
<path class="st2" d="M45.7,87.2c2.8-7.7,4.3-15.9,4.3-24.1"/>
<path class="st3" d="M50,63.1c7.1-4.1,13.5-9.4,18.8-15.8"/>
<path class="st2" d="M93.2,47.3c5.3,6.3,11.6,11.6,18.8,15.8"/>
<path class="st3" d="M112,63.1c0,8.2,1.4,16.4,4.3,24.1"/>
<path class="st2" d="M104,108.4c-8.1,1.4-15.9,4.3-23,8.4"/>
<path class="st2" d="M21.1,91.6c-7.9,21.6,3.3,45.5,24.9,53.3c11.6,4.2,24.4,3.1,35-3.1"/>
<path class="st2" d="M101.8,23.9C87,6.3,60.8,4,43.2,18.7c-9.4,7.9-14.8,19.6-14.9,31.9"/>
<path class="st2" d="M120.1,127.6c22.6-4,37.7-25.6,33.7-48.2c-2.1-12.1-9.5-22.6-20.1-28.8"/>
<path class="st1" d="M133.7,50.6C133.7,27.6,115,9,92.1,9c-12.3,0-23.9,5.4-31.9,14.9"/>
<path class="st3" d="M133.7,50.6C133.7,27.6,115,9,92.1,9c-12.3,0-23.9,5.4-31.9,14.9"/>
<path class="st1" d="M28.3,50.6C8.4,62.1,1.6,87.5,13.1,107.4c6.1,10.6,16.7,18,28.8,20.1"/>
<path class="st1" d="M81,141.8c19.9,11.5,45.3,4.7,56.8-15.2c6.1-10.6,7.3-23.5,3.1-35"/>
<path class="st3" d="M28.3,50.6C8.4,62.1,1.6,87.5,13.1,107.4c6.1,10.6,16.7,18,28.8,20.1"/>
<path class="st3" d="M81,141.8c19.9,11.5,45.3,4.7,56.8-15.2c6.1-10.6,7.3-23.5,3.1-35"/>
<circle class="st4" cx="81" cy="116.8" r="5"/>
<circle class="st4" cx="58" cy="108.4" r="5"/>
<circle class="st4" cx="45.7" cy="87.2" r="5"/>
<circle class="st4" cx="50" cy="63.1" r="5"/>
<circle class="st4" cx="68.8" cy="47.3" r="5"/>
<circle class="st4" cx="93.2" cy="47.3" r="5"/>
<circle class="st4" cx="112" cy="63.1" r="5"/>
<circle class="st4" cx="116.3" cy="87.2" r="5"/>
<circle class="st4" cx="104" cy="108.4" r="5"/>
<circle class="st4" cx="81" cy="141.8" r="5"/>
<circle class="st4" cx="41.9" cy="127.6" r="5"/>
<circle class="st4" cx="21.1" cy="91.6" r="5"/>
<circle class="st4" cx="28.3" cy="50.6" r="5"/>
<circle class="st4" cx="60.2" cy="23.9" r="5"/>
<circle class="st4" cx="101.8" cy="23.9" r="5"/>
<circle class="st4" cx="133.7" cy="50.6" r="5"/>
<circle class="st4" cx="140.9" cy="91.6" r="5"/>
<circle class="st4" cx="120.1" cy="127.6" r="5"/>
</svg>
