<svg id="Layer_1" data-name="Layer 1" xmlns="http://www.w3.org/2000/svg" viewBox="0 0 1041.28 554.14"><defs><style>.cls-1{fill:#f2f2f2;}.cls-2{opacity:0.1;}.cls-2,.cls-4{isolation:isolate;}.cls-3{fill:#65617d;}.cls-4{opacity:0.2;}.cls-5{fill:#3f3d56;}.cls-6{fill:#ccf;}.cls-7{fill:#39374d;}.cls-8{fill:#4267b2;}.cls-9{fill:#fbbebe;}.cls-10{fill:#ff6584;}.cls-11,.cls-12,.cls-13,.cls-14{fill:none;}.cls-11{stroke:#bc1e47;}.cls-11,.cls-12,.cls-13,.cls-14,.cls-15{stroke-width:4px;}.cls-12{stroke:#fff;}.cls-13{stroke:#fec200;}.cls-14{stroke:#0081cd;}.cls-15{fill:#fff;stroke:#000;}</style></defs><title>undraw_docusaurus_react</title><g id="Group_24" data-name="Group 24"><g id="Group_23" data-name="Group 23"><path id="Path_299" data-name="Path 299" class="cls-1" d="M961.47,438.17q-1.74,3.75-3.47,7.4-2.7,5.67-5.33,11.12c-.78,1.61-1.56,3.19-2.32,4.77-8.6,17.57-16.63,33.11-23.45,45.89a73.21,73.21,0,0,1-63.81,38.7l-151.65,1.65h-1.6l-13,.14-11.12.12-34.1.37h-1.38l-17.36.19h-.53l-107,1.16-95.51,1-11.11.12-69,.75h-.08L304.9,552h-.48l-141.5,1.53-42.33.46a88,88,0,0,1-10.79-.54h0c-1.22-.14-2.44-.3-3.65-.49a87.38,87.38,0,0,1-51.29-27.54c-18.21-20-31.46-43.4-40.36-68.76q-1.93-5.49-3.6-11.12c-30.81-104.15,6.75-238.52,74.35-328.44q4.25-5.64,8.64-11l.07-.08c20.79-25.52,44.1-46.84,68.93-62,44-26.91,92.75-34.49,140.7-11.9C344.16,51.27,382,60.26,418.76,62.7c3.71.24,7.42.42,11.11.53C514.1,65.88,593,35.53,685.74,15.94c3.69-.78,7.39-1.55,11.12-2.28C763,.5,836.35-6.44,923.59,8.15a189.09,189.09,0,0,1,26.76,6.4q5.77,1.86,11.12,4c41.64,16.94,64.35,48.24,74,87.46q1.37,5.46,2.37,11.11C1054.95,211.46,1004.84,345.28,961.47,438.17Z" transform="translate(0 0)"/><path id="Path_300" data-name="Path 300" class="cls-2" d="M497,445.57a95.21,95.21,0,0,1-1.87,11.12h93.7V445.57Zm-78.25,62.81,11.11-.09V480.82c-3.81-.17-7.52-.34-11.11-.52ZM185.84,445.57v11.12h198.5V445.57Zm849.68-339.52h-74V18.56q-5.35-2.17-11.12-4v91.49H696.86V13.63c-3.73.73-7.43,1.5-11.12,2.28v90.14H429.87V63.2c-3.69-.11-7.4-.29-11.11-.53v43.38H162.89v-62c-24.83,15.16-48.14,36.48-68.93,62h-.07v.08q-4.4,5.4-8.64,11h8.64V445.57h-83q1.66,5.63,3.6,11.12H93.88v93.62a87,87,0,0,0,12.2,2.79c1.21.19,2.43.35,3.65.49h0a88,88,0,0,0,10.79.54l42.33-.46v-97H418.76v94.21l11.11-.12V456.69H685.74v91.36l11.12-.12V456.69H950.35v4.77c.76-1.58,1.54-3.16,2.32-4.77q2.63-5.45,5.33-11.12,1.73-3.64,3.47-7.4v-321h76.42Q1036.88,111.48,1035.52,106.05ZM162.89,445.57V117.13H418.76V445.57Zm267,0V117.13H685.74V445.57Zm520.48,0H696.86V117.13H950.35Z" transform="translate(0 0)"/><path id="Path_301" data-name="Path 301" class="cls-3" d="M863.08,533.62v13L711.16,548l-1.62,0-57.74.53-1.38,0-17.55.15h-.52l-107,1-175.61,1.63h-.15l-44.65.42h-.48l-198.4,1.82v-15l46.65-28,93.6-.78H249l2,0,44.94-.37h4.65l14.41-.12h.38l35.55-.3h.29l277.4-2.34,6.79,0h.68l5.18,0,37.65-.31,2,0,1.85,0h1l11.71-.09,2.32,0,3.11,0,9.75-.09,15.47-.13,2,0,3.48,0h.65l74.71-.64Z" transform="translate(0 0)"/><path id="Path_302" data-name="Path 302" class="cls-4" d="M863.08,533.62v13L711.16,548l-1.62,0-57.74.53-1.38,0-17.55.15h-.52l-107,1-175.61,1.63h-.15l-44.65.42h-.48l-198.4,1.82v-15l46.65-28,93.6-.78H249l2,0,44.94-.37h4.65l14.41-.12h.38l35.55-.3h.29l277.4-2.34,6.79,0h.68l5.18,0,37.65-.31,2,0,1.85,0h1l11.71-.09,2.32,0,3.11,0,9.75-.09,15.47-.13,2,0,3.48,0h.65l74.71-.64Z" transform="translate(0 0)"/><path id="Path_303" data-name="Path 303" class="cls-5" d="M296.09,483.62v24.49a6.13,6.13,0,0,1-3.5,5.54,6,6,0,0,1-2.5.6l-34.9.74a6,6,0,0,1-2.7-.57,6.12,6.12,0,0,1-3.57-5.57V483.62Z" transform="translate(0 0)"/><path id="Path_304" data-name="Path 304" class="cls-2" d="M296.09,483.62v24.49a6.13,6.13,0,0,1-3.5,5.54,6,6,0,0,1-2.5.6l-34.9.74a6,6,0,0,1-2.7-.57,6.12,6.12,0,0,1-3.57-5.57V483.62Z" transform="translate(0 0)"/><path id="Path_305" data-name="Path 305" class="cls-5" d="M298.09,483.62v24.49a6.13,6.13,0,0,1-3.5,5.54,6,6,0,0,1-2.5.6l-34.9.74a6,6,0,0,1-2.7-.57,6.12,6.12,0,0,1-3.57-5.57V483.62Z" transform="translate(0 0)"/><rect id="Rectangle_137" data-name="Rectangle 137" class="cls-5" x="680.91" y="483.62" width="47.17" height="31.5"/><rect id="Rectangle_138" data-name="Rectangle 138" class="cls-2" x="680.91" y="483.62" width="47.17" height="31.5"/><rect id="Rectangle_139" data-name="Rectangle 139" class="cls-5" x="678.91" y="483.62" width="47.17" height="31.5"/><path id="Path_306" data-name="Path 306" class="cls-2" d="M298.08,483.61v5l-47.17,1.26v-6.23Z" transform="translate(0 0)"/><path id="Path_307" data-name="Path 307" class="cls-3" d="M381.34,312.32v168.2a4,4,0,0,1-3.85,4l-191.65,5.1h0a4,4,0,0,1-4-4V312.32a4,4,0,0,1,4-4h191.6a4,4,0,0,1,4,4Z" transform="translate(0 0)"/><path id="Path_308" data-name="Path 308" class="cls-2" d="M185.84,308.37v181.2h0a4,4,0,0,1-4-4V312.32a4,4,0,0,1,4-4Z" transform="translate(0 0)"/><path id="Path_309" data-name="Path 309" class="cls-6" d="M194.58,319.11h177.5V467.36l-177.5,4Z" transform="translate(0 0)"/><path id="Path_310" data-name="Path 310" class="cls-2" d="M726.08,483.61V490l-47.17-1.26v-5.15Z" transform="translate(0 0)"/><path id="Path_311" data-name="Path 311" class="cls-3" d="M788.34,312.32v173.3a4,4,0,0,1-4,4h0l-191.69-5.1a4,4,0,0,1-3.85-4V312.32a4,4,0,0,1,4-4h191.6A4,4,0,0,1,788.34,312.32Z" transform="translate(0 0)"/><path id="Path_312" data-name="Path 312" class="cls-2" d="M788.34,312.32v173.3a4,4,0,0,1-4,4h0V308.37h0a4,4,0,0,1,4,4Z" transform="translate(0 0)"/><path id="Path_313" data-name="Path 313" class="cls-7" d="M775.58,319.11H598.08V467.36l177.5,4Z" transform="translate(0 0)"/><path id="Path_314" data-name="Path 314" class="cls-3" d="M583.84,312.32v168.2a4,4,0,0,1-3.85,4l-191.65,5.1h0a4,4,0,0,1-4-4V312.32a4,4,0,0,1,4-4h191.6A4,4,0,0,1,583.84,312.32Z" transform="translate(0 0)"/><path id="Path_315" data-name="Path 315" class="cls-8" d="M397.08,319.11h177.5V467.36l-177.5,4Z" transform="translate(0 0)"/><path id="Path_316" data-name="Path 316" class="cls-2" d="M863.08,533.62v13L711.16,548l-1.62,0-57.74.53-1.38,0-17.55.15h-.52l-107,1-175.61,1.63h-.15l-44.65.42h-.48l-198.4,1.82v-15l202.51-1.33h.48l41-.28h.19l283.08-1.87h.93l4.79,0h1.46l74.49-.5,4.4,0h1Z" transform="translate(0 0)"/><circle id="Ellipse_111" data-name="Ellipse 111" class="cls-9" cx="487.25" cy="298.12" r="51.33"/><path id="Path_317" data-name="Path 317" class="cls-9" d="M538.59,377.12s-99.5,12-90,0c3.44-4.34,4.39-17.2,4.2-31.85-.06-4.45-.22-9.06-.45-13.65-1.1-22-3.75-43.5-3.75-43.5s87-41,77-8.5c-4,13.13-2.69,31.57.35,48.88.89,5,1.92,10,3,14.7A344.66,344.66,0,0,0,538.59,377.12Z" transform="translate(0 0)"/><path id="Path_318" data-name="Path 318" class="cls-10" d="M506.12,373.05c11.51-2.13,23.7-6,34.53-1.54,2.85,1.17,5.47,2.88,8.39,3.86s6.12,1.22,9.16,1.91c10.68,2.42,19.34,10.55,24.9,20s8.44,20.14,11.26,30.72l6.9,25.83c6,22.45,12,45.09,13.39,68.3a2437.49,2437.49,0,0,1-250.84,1.43c5.44-10.34,11-21.31,10.54-33s-7.19-23.22-4.76-34.74c1.55-7.34,6.57-13.39,9.64-20.22,8.75-19.52,1.94-45.79,17.32-60.65,6.92-6.68,17-9.21,26.63-8.89,12.28.41,24.85,4.24,37,6.11C475.74,374.53,490.44,375.93,506.12,373.05Z" transform="translate(0 0)"/><path id="Path_319" data-name="Path 319" class="cls-2" d="M637,484.22l-.1,1.43v.1l-.17,2.3-1.33,18.51-1.61,22.3-.46,6.28-1,13.44v.17l-107,1-175.59,1.9v.84h-.14v-1.12l.45-14.36.86-28.06.74-23.79.07-2.37a10.53,10.53,0,0,1,10.85-10.2l.57,0c4.72.4,10.85.89,18.18,1.41l3,.22c42.33,2.94,120.56,6.74,199.5,2,1.66-.09,3.33-.19,5-.31,12.24-.77,24.47-1.76,36.58-3A10.53,10.53,0,0,1,637,484.17Z" transform="translate(0 0)"/><path id="Path_320" data-name="Path 320" class="cls-5" d="M349.73,552.49v-.84l175.62-1.91,107-1h.3v-.17l1-13.44.43-6,1.64-22.61,1.29-17.9v-.44a10.62,10.62,0,0,0-.11-2.47.3.3,0,0,0,0-.1,10.39,10.39,0,0,0-2-4.64,10.54,10.54,0,0,0-9.42-4c-12.11,1.24-24.34,2.23-36.58,3-1.67.12-3.34.22-5,.31-78.94,4.69-157.17.89-199.5-2l-3-.22c-7.33-.52-13.46-1-18.18-1.41A10.54,10.54,0,0,0,352,485.19a11,11,0,0,0-.18,1.64L351.12,509l-.93,28.07-.44,14.36v1.12Z" transform="translate(0 0)"/><path id="Path_321" data-name="Path 321" class="cls-2" d="M637.32,491.23l-1.23,15.33-1.83,22.85-.46,5.72-1,12.81-.06.64v.17h0l-.15,1.48.11-1.48h-.29l-107,1-175.65,1.9v-.28l.49-14.36,1-28.06.64-18.65a6.36,6.36,0,0,1,3.06-5.25,6.25,6.25,0,0,1,3.78-.9c2.1.17,4.68.37,7.69.59,4.89.36,10.92.78,17.94,1.22,13,.82,29.31,1.7,48,2.42,52,2,122.2,2.67,188.88-3.17,3-.26,6.1-.55,9.13-.84a6.26,6.26,0,0,1,3.48.66,5.16,5.16,0,0,1,.86.54,6.14,6.14,0,0,1,2,2.46,3.57,3.57,0,0,1,.25.61A6.28,6.28,0,0,1,637.32,491.23Z" transform="translate(0 0)"/><path id="Path_322" data-name="Path 322" class="cls-2" d="M298.09,504.92v3.19a6.13,6.13,0,0,1-3.5,5.54l-40.1.77a6.12,6.12,0,0,1-3.57-5.57v-3Z" transform="translate(0 0)"/><path id="Path_323" data-name="Path 323" class="cls-5" d="M298.58,515.53l-52.25,1v-8.67l52.25-1Z" transform="translate(0 0)"/><path id="Path_324" data-name="Path 324" class="cls-2" d="M298.58,515.53l-52.25,1v-8.67l52.25-1Z" transform="translate(0 0)"/><path id="Path_325" data-name="Path 325" class="cls-5" d="M300.58,515.53l-52.25,1v-8.67l52.25-1Z" transform="translate(0 0)"/><path id="Path_326" data-name="Path 326" class="cls-2" d="M679.21,506.92v3.19a6.13,6.13,0,0,0,3.5,5.54l40.1.77a6.12,6.12,0,0,0,3.57-5.57v-3Z" transform="translate(0 0)"/><path id="Path_327" data-name="Path 327" class="cls-2" d="M678.71,517.53l52.25,1v-8.67l-52.25-1Z" transform="translate(0 0)"/><path id="Path_328" data-name="Path 328" class="cls-5" d="M676.71,517.53l52.25,1v-8.67l-52.25-1Z" transform="translate(0 0)"/><path id="Path_329" data-name="Path 329" class="cls-5" d="M454.78,313.84c.08,7-3.16,13.6-5.91,20.07a163.49,163.49,0,0,0-12.66,74.71c.73,11,2.58,22,.73,32.9s-8.43,21.77-19,24.9c17.53,10.45,41.26,9.35,57.76-2.66,8.79-6.4,15.34-15.33,21.75-24.11a97.86,97.86,0,0,1-13.31,44.75,103.43,103.43,0,0,0,73.51-40.82c4.31-5.81,8.06-12.19,9.72-19.23,3.09-13-1.22-26.51-4.51-39.5a266.06,266.06,0,0,1-6.17-33c-.43-3.56-.78-7.22.1-10.7,1-4.07,3.67-7.51,5.64-11.22,5.6-10.54,5.73-23.3,2.86-34.88s-8.49-22.26-14.06-32.81c-4.46-8.46-9.3-17.31-17.46-22.28-5.1-3.1-11-4.39-16.88-5.64l-25.37-5.43c-5.55-1.19-11.26-2.38-16.87-1.51-9.47,1.48-16.14,8.32-22,15.34-4.59,5.46-15.81,15.71-16.6,22.86-.72,6.59,5.1,17.63,6.09,24.58,1.3,9,2.22,6,7.3,11.52C452.65,305.1,454.72,309.05,454.78,313.84Z" transform="translate(0 0)"/></g><line class="cls-11" x1="281.59" y1="419.83" x2="281.59" y2="437.48"/><line class="cls-11" x1="259.69" y1="381.91" x2="244.41" y2="373.08"/><line class="cls-11" x1="303.48" y1="381.91" x2="318.77" y2="373.08"/><path class="cls-11" d="M265.34,413.91a49.81,49.81,0,0,0-8.65-15" transform="translate(0 0)"/><path class="cls-11" d="M272.94,370.79a49.81,49.81,0,0,0,17.3,0" transform="translate(0 0)"/><path class="cls-11" d="M306.49,398.94a49.8,49.8,0,0,0-8.65,15" transform="translate(0 0)"/><path class="cls-11" d="M266.9,354.2A29.37,29.37,0,0,0,239.3,402" transform="translate(0 0)"/><path class="cls-11" d="M323.88,402a29.37,29.37,0,0,0-27.6-47.8" transform="translate(0 0)"/><path class="cls-11" d="M254,427.43a29.37,29.37,0,0,0,55.2,0" transform="translate(0 0)"/><path class="cls-12" d="M239.3,402a29.37,29.37,0,0,0,42.29,35.48" transform="translate(0 0)"/><path class="cls-12" d="M296.27,354.2a29.37,29.37,0,0,0-51.87,18.88" transform="translate(0 0)"/><path class="cls-12" d="M309.19,427.43a29.37,29.37,0,0,0,9.58-54.35" transform="translate(0 0)"/><line class="cls-13" x1="265.34" y1="413.91" x2="253.99" y2="427.43"/><line class="cls-14" x1="256.69" y1="398.94" x2="239.3" y2="402"/><line class="cls-13" x1="272.94" y1="370.79" x2="266.9" y2="354.2"/><line class="cls-14" x1="290.24" y1="370.79" x2="296.27" y2="354.2"/><line class="cls-13" x1="306.49" y1="398.94" x2="323.88" y2="402"/><line class="cls-14" x1="297.84" y1="413.91" x2="309.19" y2="427.43"/><path class="cls-14" d="M281.59,419.83a49.81,49.81,0,0,0-16.25-5.92" transform="translate(0 0)"/><path class="cls-13" d="M256.69,398.94a49.79,49.79,0,0,0,3-17" transform="translate(0 0)"/><path class="cls-14" d="M259.69,381.91a49.81,49.81,0,0,0,13.25-11.12" transform="translate(0 0)"/><path class="cls-13" d="M290.24,370.79a49.82,49.82,0,0,0,13.25,11.12" transform="translate(0 0)"/><path class="cls-14" d="M303.48,381.91a49.79,49.79,0,0,0,3,17" transform="translate(0 0)"/><path class="cls-13" d="M297.84,413.91a49.81,49.81,0,0,0-16.25,5.92" transform="translate(0 0)"/><path class="cls-13" d="M239.3,402a29.37,29.37,0,0,0,42.29,35.48" transform="translate(0 0)"/><path class="cls-13" d="M296.27,354.2a29.37,29.37,0,0,0-51.87,18.88" transform="translate(0 0)"/><path class="cls-13" d="M309.19,427.43a29.37,29.37,0,0,0,9.58-54.35" transform="translate(0 0)"/><path class="cls-12" d="M318.77,373.08A29.37,29.37,0,0,0,266.9,354.2" transform="translate(0 0)"/><path class="cls-14" d="M318.77,373.08A29.37,29.37,0,0,0,266.9,354.2" transform="translate(0 0)"/><path class="cls-12" d="M244.41,373.08A29.37,29.37,0,0,0,254,427.43" transform="translate(0 0)"/><path class="cls-12" d="M281.59,437.48A29.37,29.37,0,0,0,323.87,402" transform="translate(0 0)"/><path class="cls-14" d="M244.41,373.08A29.37,29.37,0,0,0,254,427.43" transform="translate(0 0)"/><path class="cls-14" d="M281.59,437.48A29.37,29.37,0,0,0,323.87,402" transform="translate(0 0)"/><circle class="cls-15" cx="281.59" cy="419.83" r="3.53"/><circle class="cls-15" cx="265.34" cy="413.91" r="3.53"/><circle class="cls-15" cx="256.69" cy="398.94" r="3.53"/><circle class="cls-15" cx="259.69" cy="381.91" r="3.53"/><circle class="cls-15" cx="272.94" cy="370.79" r="3.53"/><circle class="cls-15" cx="290.24" cy="370.79" r="3.53"/><circle class="cls-15" cx="303.48" cy="381.91" r="3.53"/><circle class="cls-15" cx="306.49" cy="398.94" r="3.53"/><circle class="cls-15" cx="297.84" cy="413.91" r="3.53"/><circle class="cls-15" cx="281.59" cy="437.48" r="3.53"/><circle class="cls-15" cx="253.99" cy="427.43" r="3.53"/><circle class="cls-15" cx="239.3" cy="402" r="3.53"/><circle class="cls-15" cx="244.41" cy="373.08" r="3.53"/><circle class="cls-15" cx="266.9" cy="354.2" r="3.53"/><circle class="cls-15" cx="296.27" cy="354.2" r="3.53"/><circle class="cls-15" cx="318.77" cy="373.08" r="3.53"/><circle class="cls-15" cx="323.88" cy="402" r="3.53"/><circle class="cls-15" cx="309.19" cy="427.43" r="3.53"/></g></svg>