<svg id="Layer_1" data-name="Layer 1" xmlns="http://www.w3.org/2000/svg" xmlns:xlink="http://www.w3.org/1999/xlink" viewBox="0 0 212.06 115.63"><defs><style>.cls-1,.cls-10,.cls-4{fill:none;}.cls-2{fill:#edf3f3;stroke:#a6a8ab;}.cls-10,.cls-11,.cls-2,.cls-20,.cls-21,.cls-3,.cls-4,.cls-6,.cls-7,.cls-8,.cls-9{stroke-miterlimit:10;}.cls-11,.cls-3,.cls-6,.cls-7{fill:#26a9e0;}.cls-3,.cls-4{stroke:#bbbdbf;}.cls-5{fill:#231f20;}.cls-6{stroke:#d0d2d3;}.cls-7{stroke:#37b34a;}.cls-8{fill:#a6a8ab;}.cls-21,.cls-8{stroke:#808184;}.cls-9{fill:#37b34a;stroke:#009345;}.cls-10,.cls-11{stroke:#1b75bb;}.cls-12{clip-path:url(#clip-path);}.cls-13{fill:#fff;}.cls-14{clip-path:url(#clip-path-2);}.cls-15{clip-path:url(#clip-path-3);}.cls-16{clip-path:url(#clip-path-4);}.cls-17{clip-path:url(#clip-path-5);}.cls-18{clip-path:url(#clip-path-6);}.cls-19{clip-path:url(#clip-path-7);}.cls-20,.cls-29{fill:#ee4036;}.cls-20{stroke:#be1e2d;}.cls-21{fill:#929497;}.cls-22{clip-path:url(#clip-path-8);}.cls-23{clip-path:url(#clip-path-9);}.cls-24{clip-path:url(#clip-path-10);}.cls-25{clip-path:url(#clip-path-11);}.cls-26{clip-path:url(#clip-path-12);}.cls-27{clip-path:url(#clip-path-13);}.cls-28{clip-path:url(#clip-path-14);}.cls-29{font-size:10px;}.cls-29,.cls-30,.cls-31{font-family:CMUSansSerif-Bold, CMU Sans Serif;font-weight:700;}.cls-30,.cls-31{font-size:12px;}.cls-30{fill:#1b75bb;}.cls-31{fill:#6d6e70;}</style><clipPath id="clip-path" transform="translate(-286.99 -305.7)"><rect class="cls-1" x="334.06" y="342.91" width="11" height="8"/></clipPath><clipPath id="clip-path-2" transform="translate(-286.99 -305.7)"><rect class="cls-1" x="299.15" y="360.64" width="11" height="8"/></clipPath><clipPath id="clip-path-3" transform="translate(-286.99 -305.7)"><rect class="cls-1" x="296.78" y="392.71" width="11" height="8"/></clipPath><clipPath id="clip-path-4" transform="translate(-286.99 -305.7)"><rect class="cls-1" x="327.63" y="389.84" width="11" height="8"/></clipPath><clipPath id="clip-path-5" transform="translate(-286.99 -305.7)"><rect class="cls-1" x="363.78" y="369.3" width="11" height="8"/></clipPath><clipPath id="clip-path-6" transform="translate(-286.99 -305.7)"><rect class="cls-1" x="367.22" y="341.36" width="11" height="8"/></clipPath><clipPath id="clip-path-7" transform="translate(-286.99 -305.7)"><rect class="cls-1" x="355.88" y="322.07" width="11" height="8"/></clipPath><clipPath id="clip-path-8" transform="translate(-286.99 -305.7)"><rect class="cls-1" x="443.4" y="343.65" width="11" height="8"/></clipPath><clipPath id="clip-path-9" transform="translate(-286.99 -305.7)"><rect class="cls-1" x="408.5" y="361.38" width="11" height="8"/></clipPath><clipPath id="clip-path-10" transform="translate(-286.99 -305.7)"><rect class="cls-1" x="406.12" y="393.44" width="11" height="8"/></clipPath><clipPath id="clip-path-11" transform="translate(-286.99 -305.7)"><rect class="cls-1" x="436.98" y="390.57" width="11" height="8"/></clipPath><clipPath id="clip-path-12" transform="translate(-286.99 -305.7)"><rect class="cls-1" x="473.12" y="370.04" width="11" height="8"/></clipPath><clipPath id="clip-path-13" transform="translate(-286.99 -305.7)"><rect class="cls-1" x="476.57" y="342.1" width="11" height="8"/></clipPath><clipPath id="clip-path-14" transform="translate(-286.99 -305.7)"><rect class="cls-1" x="465.23" y="322.81" width="11" height="8"/></clipPath></defs><rect class="cls-2" x="0.5" y="0.76" width="97.99" height="114.36" rx="14.75"/><line class="cls-3" x1="52.57" y1="84.64" x2="76.98" y2="71.89"/><path class="cls-4" d="M303,400.62a52.85,52.85,0,0,0,38.19.43,56.64,56.64,0,0,0,26.28-21.28" transform="translate(-286.99 -305.7)"/><line class="cls-3" x1="17.19" y1="89.29" x2="39.71" y2="88.74"/><line class="cls-3" x1="22.68" y1="53.39" x2="46.46" y2="41.56"/><path class="cls-5" d="M364,335" transform="translate(-286.99 -305.7)"/><line class="cls-3" x1="57.35" y1="34.89" x2="69.55" y2="23.71"/><line class="cls-6" x1="79.15" y1="24.37" x2="82.28" y2="33.4"/><line class="cls-3" x1="84.69" y1="45.91" x2="83.32" y2="60.52"/><line class="cls-7" x1="59.9" y1="40.21" x2="79.15" y2="39.12"/><line class="cls-3" x1="15.4" y1="85.93" x2="48.11" y2="44.77"/><line class="cls-3" x1="21.09" y1="63.8" x2="41.08" y2="83.1"/><line class="cls-7" x1="17.19" y1="64.74" x2="16.62" y2="83.1"/><line class="cls-7" x1="57.35" y1="45.49" x2="77.13" y2="63.31"/><line class="cls-7" x1="51.51" y1="46.78" x2="47.48" y2="80.81"/><line class="cls-7" x1="23.95" y1="60.49" x2="75.84" y2="66.59"/><circle class="cls-8" cx="82.63" cy="67.28" r="6.79"/><circle class="cls-8" cx="74.68" cy="19.27" r="6.79"/><path class="cls-8" d="M334.72,399.72a6.79,6.79,0,1,1,5.28-8A6.79,6.79,0,0,1,334.72,399.72Z" transform="translate(-286.99 -305.7)"/><circle class="cls-9" cx="53.11" cy="40.19" r="6.79"/><path class="cls-10" d="M357.34,336.35" transform="translate(-286.99 -305.7)"/><path class="cls-9" d="M306,370.29a6.79,6.79,0,1,1,5.28-8A6.78,6.78,0,0,1,306,370.29Z" transform="translate(-286.99 -305.7)"/><path class="cls-11" d="M306.35,402.1" transform="translate(-286.99 -305.7)"/><path class="cls-11" d="M374.83,377.59" transform="translate(-286.99 -305.7)"/><path class="cls-11" d="M330.77,399.35" transform="translate(-286.99 -305.7)"/><path class="cls-11" d="M353.53,403" transform="translate(-286.99 -305.7)"/><circle class="cls-8" cx="85.94" cy="39.12" r="6.79"/><g class="cls-12"><path class="cls-13" d="M340.05,343.88c0-.64-.32-.85-.53-.85a.65.65,0,0,0-.59.59c0,.16.05.21.19.34a1.34,1.34,0,0,1,.4,1c0,.5-.72,3.22-2.11,3.22-.61,0-.9-.4-.9-1a8.82,8.82,0,0,1,.69-2.5,1.18,1.18,0,0,0,.16-.61,1,1,0,0,0-1-1c-1.11,0-1.57,1.73-1.57,1.84s.14.13.14.13.13,0,.21-.21c.35-1.2.85-1.49,1.2-1.49.08,0,.29,0,.29.4a2.47,2.47,0,0,1-.21.82,7.7,7.7,0,0,0-.67,2.45,1.42,1.42,0,0,0,1.6,1.47c2,0,2.69-3.94,2.69-4.56" transform="translate(-286.99 -305.7)"/><path class="cls-13" d="M342.66,350a1.1,1.1,0,0,1-1.09-.9,9.31,9.31,0,0,1-.11-1.81,7,7,0,0,1,.13-1.71,1.08,1.08,0,0,1,1.07-.85,1.12,1.12,0,0,1,1,.77,7.18,7.18,0,0,1,.13,1.79,9.1,9.1,0,0,1-.11,1.78,1.07,1.07,0,0,1-1.06.93m1.94-2.6a3.6,3.6,0,0,0-.5-2.16,1.73,1.73,0,0,0-1.44-.75c-2,0-2,2.32-2,2.91s0,2.84,2,2.84S344.6,348,344.6,347.43Z" transform="translate(-286.99 -305.7)"/></g><g class="cls-14"><path class="cls-13" d="M305.14,361.61c0-.64-.32-.85-.53-.85a.66.66,0,0,0-.59.59c0,.16.06.21.19.34a1.34,1.34,0,0,1,.4,1c0,.51-.72,3.22-2.1,3.22-.62,0-.91-.4-.91-1a9.17,9.17,0,0,1,.69-2.5,1.18,1.18,0,0,0,.16-.61,1,1,0,0,0-1-1c-1.12,0-1.57,1.73-1.57,1.84a.13.13,0,0,0,.13.13c.13,0,.13,0,.21-.21.35-1.2.86-1.49,1.2-1.49.08,0,.29,0,.29.4a2.47,2.47,0,0,1-.21.82,7.87,7.87,0,0,0-.66,2.45,1.41,1.41,0,0,0,1.59,1.47c2,0,2.69-3.94,2.69-4.56" transform="translate(-286.99 -305.7)"/><path class="cls-13" d="M308.18,362.49c0-.21,0-.24-.27-.24a2.27,2.27,0,0,1-1.65.56v.3a2.74,2.74,0,0,0,1.23-.24v4.28c0,.27,0,.4-.86.4h-.32v.29l1.52,0,1.49,0v-.29H309c-.82,0-.82-.13-.82-.4v-4.66" transform="translate(-286.99 -305.7)"/></g><path class="cls-8" d="M303.94,402.6a6.79,6.79,0,1,1,5.28-8A6.78,6.78,0,0,1,303.94,402.6Z" transform="translate(-286.99 -305.7)"/><g class="cls-15"><path class="cls-13" d="M302.77,393.68c0-.64-.32-.86-.54-.86a.65.65,0,0,0-.58.59c0,.16.05.21.18.35a1.34,1.34,0,0,1,.4,1c0,.51-.71,3.22-2.1,3.22-.61,0-.9-.4-.9-1a8.87,8.87,0,0,1,.69-2.51,1.29,1.29,0,0,0,.16-.61,1,1,0,0,0-1-1c-1.12,0-1.57,1.74-1.57,1.84a.13.13,0,0,0,.13.14c.14,0,.14,0,.22-.22.34-1.2.85-1.49,1.2-1.49.08,0,.29,0,.29.4a2.59,2.59,0,0,1-.21.83,7.57,7.57,0,0,0-.67,2.45,1.42,1.42,0,0,0,1.6,1.46c2,0,2.69-3.94,2.69-4.55" transform="translate(-286.99 -305.7)"/><path class="cls-13" d="M307.21,398.39H307a2.28,2.28,0,0,1-.24.75,4.2,4.2,0,0,1-.83.05h-1.54c.88-.77,1.17-1,1.68-1.41s1.19-1,1.19-1.81a1.76,1.76,0,0,0-2-1.65,1.62,1.62,0,0,0-1.73,1.51.44.44,0,0,0,.43.48.45.45,0,0,0,.45-.45c0-.16-.05-.45-.48-.45a1.3,1.3,0,0,1,1.23-.77,1.25,1.25,0,0,1,1.27,1.33,2.7,2.7,0,0,1-.79,1.62l-2,2c-.08.08-.08.08-.08.32H307l.24-1.52" transform="translate(-286.99 -305.7)"/></g><g class="cls-16"><path class="cls-13" d="M333.62,390.81c0-.64-.32-.85-.53-.85a.65.65,0,0,0-.59.58c0,.16.06.21.19.35a1.34,1.34,0,0,1,.4,1c0,.51-.72,3.23-2.11,3.23-.61,0-.9-.4-.9-1a9.22,9.22,0,0,1,.69-2.51,1.18,1.18,0,0,0,.16-.61,1,1,0,0,0-1-1c-1.12,0-1.58,1.73-1.58,1.83a.14.14,0,0,0,.14.14c.13,0,.13,0,.21-.22.35-1.19.85-1.49,1.2-1.49.08,0,.29,0,.29.4a2.59,2.59,0,0,1-.21.83,7.57,7.57,0,0,0-.67,2.45,1.42,1.42,0,0,0,1.6,1.46c2,0,2.69-3.94,2.69-4.55" transform="translate(-286.99 -305.7)"/><path class="cls-13" d="M336.12,394.24c.67,0,1.12.46,1.12,1.33,0,1-.58,1.36-1.09,1.36a1.77,1.77,0,0,1-1.41-.58.48.48,0,0,0,.48-.48.47.47,0,1,0-.93,0c0,.8.87,1.31,1.89,1.31a1.8,1.8,0,0,0,2-1.63,1.67,1.67,0,0,0-1.47-1.49,1.61,1.61,0,0,0,1.2-1.46c0-.67-.74-1.17-1.68-1.17s-1.65.45-1.65,1.14a.43.43,0,1,0,.43-.42,1.57,1.57,0,0,1,1.2-.46.83.83,0,0,1,.9.91,1.75,1.75,0,0,1-.34,1,1.17,1.17,0,0,1-.94.35l-.26,0s-.08,0-.08.11.08.13.21.13h.45" transform="translate(-286.99 -305.7)"/></g><g class="cls-17"><path class="cls-13" d="M369.77,370.27c0-.64-.32-.85-.53-.85a.65.65,0,0,0-.59.58c0,.16.05.22.19.35a1.34,1.34,0,0,1,.4,1c0,.5-.72,3.22-2.11,3.22-.61,0-.9-.4-.9-1a8.73,8.73,0,0,1,.69-2.5,1.25,1.25,0,0,0,.16-.62,1,1,0,0,0-1-1c-1.12,0-1.57,1.73-1.57,1.84s.14.13.14.13.13,0,.21-.21c.34-1.2.85-1.5,1.2-1.5.08,0,.29,0,.29.4a2.46,2.46,0,0,1-.21.83,7.57,7.57,0,0,0-.67,2.45,1.41,1.41,0,0,0,1.6,1.46c2,0,2.69-3.94,2.69-4.55" transform="translate(-286.99 -305.7)"/><path class="cls-13" d="M372.83,371.74v3.08h-2.21l2.21-3.08m1.6,3.38v-.3h-.93v-3.75c0-.19,0-.24-.19-.24s-.13,0-.21.13l-2.8,3.86v.3h2.48v.69c0,.29,0,.4-.7.4h-.21v.29c.43,0,1,0,1.25,0s.85,0,1.28,0v-.29h-.24c-.66,0-.66-.11-.66-.4v-.69Z" transform="translate(-286.99 -305.7)"/></g><g class="cls-18"><path class="cls-13" d="M373.21,342.33c0-.63-.32-.85-.53-.85a.65.65,0,0,0-.58.59c0,.16,0,.21.18.34a1.34,1.34,0,0,1,.4,1c0,.51-.72,3.22-2.1,3.22-.61,0-.91-.4-.91-1a8.89,8.89,0,0,1,.7-2.5,1.28,1.28,0,0,0,.15-.61,1,1,0,0,0-1-1c-1.12,0-1.57,1.73-1.57,1.84a.13.13,0,0,0,.13.13c.13,0,.13,0,.21-.21.35-1.2.86-1.49,1.2-1.49.08,0,.3,0,.3.4a2.46,2.46,0,0,1-.22.82,7.87,7.87,0,0,0-.66,2.45,1.42,1.42,0,0,0,1.59,1.47c2,0,2.69-3.94,2.69-4.56" transform="translate(-286.99 -305.7)"/><path class="cls-13" d="M374.73,343.88a3.22,3.22,0,0,0,.8.1,2,2,0,0,0,1.78-.87.13.13,0,0,0-.1-.14s0,0-.08,0a3.27,3.27,0,0,1-1.25.24,3.19,3.19,0,0,1-1.23-.21l-.1-.06c-.14,0-.14.11-.14.24v2.48c0,.13,0,.24.14.24s.1,0,.18-.11a1.38,1.38,0,0,1,1.17-.53.91.91,0,0,1,.78.48,2.35,2.35,0,0,1,.18,1.06,2.07,2.07,0,0,1-.24,1.12,1.16,1.16,0,0,1-1,.51,1.38,1.38,0,0,1-1.33-.85.43.43,0,1,0-.35-.4,1.61,1.61,0,0,0,1.7,1.51,1.92,1.92,0,0,0,2-1.83,1.79,1.79,0,0,0-1.76-1.84,1.9,1.9,0,0,0-1.17.4v-1.57" transform="translate(-286.99 -305.7)"/></g><g class="cls-19"><path class="cls-13" d="M361.87,323c0-.64-.32-.85-.53-.85a.66.66,0,0,0-.59.59c0,.15.06.21.19.34a1.34,1.34,0,0,1,.4,1c0,.5-.72,3.22-2.1,3.22-.62,0-.91-.4-.91-1a9.07,9.07,0,0,1,.69-2.5,1.25,1.25,0,0,0,.16-.62,1,1,0,0,0-1-1c-1.12,0-1.57,1.73-1.57,1.84a.13.13,0,0,0,.13.13c.13,0,.13,0,.21-.21.35-1.2.85-1.49,1.2-1.49.08,0,.29,0,.29.4a2.47,2.47,0,0,1-.21.82,7.64,7.64,0,0,0-.67,2.45,1.41,1.41,0,0,0,1.6,1.46c2,0,2.69-3.94,2.69-4.55" transform="translate(-286.99 -305.7)"/><path class="cls-13" d="M364.48,329.17a1,1,0,0,1-.93-.62,3,3,0,0,1-.19-1.17,1.28,1.28,0,0,1,1.17-1.44,1,1,0,0,1,.86.46,2.25,2.25,0,0,1,.21,1.17,1.73,1.73,0,0,1-.24,1.14.94.94,0,0,1-.88.46m-1.14-2.64a3.46,3.46,0,0,1,.37-1.84A1.51,1.51,0,0,1,365,324a1,1,0,0,1,.77.29.4.4,0,1,0,0,.8.39.39,0,0,0,.4-.43c0-.48-.35-.93-1.17-.93a2.68,2.68,0,0,0-2.45,2.93c0,2.18,1,2.82,1.94,2.82a1.86,1.86,0,0,0,1.92-1.86,1.84,1.84,0,0,0-1.84-1.87A1.36,1.36,0,0,0,363.34,326.53Z" transform="translate(-286.99 -305.7)"/></g><rect class="cls-2" x="113.56" y="0.5" width="97.99" height="114.36" rx="14.75"/><line class="cls-3" x1="161.91" y1="85.38" x2="186.33" y2="72.63"/><path class="cls-4" d="M412.31,401.36a52.88,52.88,0,0,0,38.19.42c15-5.74,23.33-16.88,26.29-21.27" transform="translate(-286.99 -305.7)"/><line class="cls-3" x1="126.53" y1="90.02" x2="149.05" y2="89.48"/><line class="cls-3" x1="132.03" y1="54.13" x2="155.81" y2="42.3"/><path class="cls-5" d="M473.32,335.72" transform="translate(-286.99 -305.7)"/><line class="cls-3" x1="166.7" y1="35.62" x2="178.89" y2="24.45"/><line class="cls-6" x1="188.5" y1="25.11" x2="191.63" y2="34.14"/><line class="cls-3" x1="194.03" y1="46.64" x2="192.66" y2="61.26"/><line class="cls-3" x1="169.25" y1="40.95" x2="188.5" y2="39.85"/><line class="cls-3" x1="124.75" y1="86.67" x2="157.46" y2="45.51"/><line class="cls-3" x1="130.44" y1="64.53" x2="150.43" y2="83.84"/><line class="cls-3" x1="126.53" y1="65.47" x2="125.97" y2="83.84"/><line class="cls-3" x1="166.7" y1="46.22" x2="186.48" y2="64.05"/><line class="cls-3" x1="160.86" y1="47.52" x2="156.83" y2="81.55"/><line class="cls-3" x1="133.3" y1="61.23" x2="185.19" y2="67.32"/><circle class="cls-20" cx="191.98" cy="68.02" r="6.79"/><circle class="cls-8" cx="184.03" cy="20.01" r="6.79"/><path class="cls-8" d="M444.07,400.46a6.79,6.79,0,1,1,5.28-8A6.79,6.79,0,0,1,444.07,400.46Z" transform="translate(-286.99 -305.7)"/><circle class="cls-21" cx="162.46" cy="40.93" r="6.79"/><path class="cls-10" d="M466.69,337.09" transform="translate(-286.99 -305.7)"/><path class="cls-8" d="M415.37,371a6.79,6.79,0,1,1,5.28-8A6.79,6.79,0,0,1,415.37,371Z" transform="translate(-286.99 -305.7)"/><path class="cls-11" d="M415.7,402.84" transform="translate(-286.99 -305.7)"/><path class="cls-11" d="M484.18,378.33" transform="translate(-286.99 -305.7)"/><path class="cls-11" d="M440.11,400.09" transform="translate(-286.99 -305.7)"/><path class="cls-11" d="M462.88,403.72" transform="translate(-286.99 -305.7)"/><circle class="cls-20" cx="195.29" cy="39.85" r="6.79"/><g class="cls-22"><path class="cls-13" d="M449.4,344.62c0-.64-.32-.85-.54-.85a.65.65,0,0,0-.58.58c0,.16.05.22.18.35a1.34,1.34,0,0,1,.4,1c0,.5-.72,3.22-2.1,3.22-.61,0-.91-.4-.91-1a8.8,8.8,0,0,1,.7-2.5,1.36,1.36,0,0,0,.16-.62,1,1,0,0,0-1-1c-1.12,0-1.57,1.73-1.57,1.84a.13.13,0,0,0,.13.13c.14,0,.14,0,.22-.21.34-1.2.85-1.5,1.19-1.5.08,0,.3,0,.3.4a2.46,2.46,0,0,1-.22.83,7.74,7.74,0,0,0-.66,2.45,1.41,1.41,0,0,0,1.6,1.46c2,0,2.69-3.94,2.69-4.55" transform="translate(-286.99 -305.7)"/><path class="cls-13" d="M452,350.77a1.12,1.12,0,0,1-1.09-.9,10.29,10.29,0,0,1-.1-1.81,6.87,6.87,0,0,1,.13-1.71,1.08,1.08,0,0,1,1.06-.85,1.09,1.09,0,0,1,1,.77,6.64,6.64,0,0,1,.14,1.79,9.15,9.15,0,0,1-.11,1.78,1.07,1.07,0,0,1-1.07.93m1.95-2.61a3.58,3.58,0,0,0-.51-2.15,1.71,1.71,0,0,0-1.44-.75c-2,0-2,2.32-2,2.9s0,2.85,2,2.85S454,348.77,454,348.16Z" transform="translate(-286.99 -305.7)"/></g><g class="cls-23"><path class="cls-13" d="M414.49,362.35c0-.64-.32-.85-.53-.85a.65.65,0,0,0-.59.58c0,.16.05.22.19.35a1.34,1.34,0,0,1,.4,1c0,.5-.72,3.22-2.11,3.22-.61,0-.9-.4-.9-1a8.73,8.73,0,0,1,.69-2.5,1.25,1.25,0,0,0,.16-.62,1,1,0,0,0-1-1c-1.11,0-1.57,1.73-1.57,1.84s.14.13.14.13.13,0,.21-.21c.35-1.2.85-1.49,1.2-1.49.08,0,.29,0,.29.39a2.46,2.46,0,0,1-.21.83,7.57,7.57,0,0,0-.67,2.45,1.41,1.41,0,0,0,1.6,1.46c2,0,2.69-3.94,2.69-4.55" transform="translate(-286.99 -305.7)"/><path class="cls-13" d="M417.52,363.23c0-.21,0-.24-.26-.24a2.33,2.33,0,0,1-1.65.56v.29a2.68,2.68,0,0,0,1.22-.24v4.29c0,.27,0,.4-.85.4h-.32v.29l1.52,0,1.49,0v-.29h-.32c-.83,0-.83-.13-.83-.4v-4.66" transform="translate(-286.99 -305.7)"/></g><path class="cls-20" d="M413.28,403.34a6.79,6.79,0,1,1,5.28-8A6.8,6.8,0,0,1,413.28,403.34Z" transform="translate(-286.99 -305.7)"/><g class="cls-24"><path class="cls-13" d="M412.11,394.41c0-.64-.32-.85-.53-.85a.66.66,0,0,0-.59.59c0,.16.06.21.19.34a1.34,1.34,0,0,1,.4,1c0,.5-.72,3.22-2.1,3.22-.62,0-.91-.4-.91-1a9.17,9.17,0,0,1,.69-2.5,1.18,1.18,0,0,0,.16-.61,1,1,0,0,0-1-1c-1.12,0-1.57,1.73-1.57,1.84a.13.13,0,0,0,.13.13c.13,0,.13,0,.21-.21.35-1.2.86-1.49,1.2-1.49.08,0,.29,0,.29.4a2.47,2.47,0,0,1-.21.82,7.87,7.87,0,0,0-.66,2.45,1.41,1.41,0,0,0,1.59,1.47c2,0,2.69-3.94,2.69-4.56" transform="translate(-286.99 -305.7)"/><path class="cls-13" d="M416.56,399.13h-.27a1.85,1.85,0,0,1-.24.74,3.43,3.43,0,0,1-.82.06h-1.55c.88-.78,1.18-1,1.68-1.42s1.2-1,1.2-1.81a1.77,1.77,0,0,0-2-1.65,1.63,1.63,0,0,0-1.73,1.52.43.43,0,0,0,.42.48.45.45,0,0,0,.46-.45.43.43,0,0,0-.48-.46,1.3,1.3,0,0,1,1.22-.77,1.26,1.26,0,0,1,1.28,1.33,2.68,2.68,0,0,1-.8,1.63l-2,2c-.08.08-.08.08-.08.32h3.46l.24-1.51" transform="translate(-286.99 -305.7)"/></g><g class="cls-25"><path class="cls-13" d="M443,391.54c0-.63-.32-.85-.54-.85a.65.65,0,0,0-.58.59c0,.16,0,.21.18.34a1.34,1.34,0,0,1,.4,1c0,.51-.71,3.22-2.1,3.22-.61,0-.9-.4-.9-1a8.9,8.9,0,0,1,.69-2.5,1.29,1.29,0,0,0,.16-.61,1,1,0,0,0-1-1c-1.12,0-1.57,1.73-1.57,1.84a.13.13,0,0,0,.13.13c.14,0,.14,0,.22-.21.34-1.2.85-1.49,1.2-1.49.08,0,.29,0,.29.4a2.47,2.47,0,0,1-.21.82,7.7,7.7,0,0,0-.67,2.45,1.42,1.42,0,0,0,1.6,1.47c2,0,2.69-3.94,2.69-4.56" transform="translate(-286.99 -305.7)"/><path class="cls-13" d="M445.47,395c.67,0,1.12.45,1.12,1.33,0,1-.59,1.36-1.09,1.36a1.78,1.78,0,0,1-1.42-.59.46.46,0,0,0,.48-.48.47.47,0,1,0-.93,0c0,.8.88,1.31,1.89,1.31a1.81,1.81,0,0,0,2-1.63,1.65,1.65,0,0,0-1.46-1.49,1.61,1.61,0,0,0,1.2-1.46c0-.67-.75-1.18-1.68-1.18s-1.65.46-1.65,1.15a.39.39,0,0,0,.42.42.4.4,0,0,0,.43-.42.43.43,0,0,0-.43-.43,1.61,1.61,0,0,1,1.2-.45.83.83,0,0,1,.91.91,1.69,1.69,0,0,1-.35,1,1.1,1.1,0,0,1-.93.34l-.27,0a.1.1,0,0,0-.08.11c0,.13.08.13.22.13h.45" transform="translate(-286.99 -305.7)"/></g><g class="cls-26"><path class="cls-13" d="M479.11,371c0-.64-.32-.85-.53-.85a.65.65,0,0,0-.58.58c0,.16.05.21.18.35a1.34,1.34,0,0,1,.4,1c0,.51-.72,3.22-2.1,3.22-.61,0-.91-.39-.91-1a9.22,9.22,0,0,1,.69-2.51,1.18,1.18,0,0,0,.16-.61,1,1,0,0,0-1-1c-1.12,0-1.57,1.73-1.57,1.83a.13.13,0,0,0,.13.14c.13,0,.13,0,.21-.22.35-1.2.86-1.49,1.2-1.49.08,0,.3,0,.3.4a2.59,2.59,0,0,1-.22.83,7.74,7.74,0,0,0-.66,2.45,1.41,1.41,0,0,0,1.59,1.46c2,0,2.69-3.94,2.69-4.55" transform="translate(-286.99 -305.7)"/><path class="cls-13" d="M482.18,372.47v3.09H480l2.21-3.09m1.59,3.38v-.29h-.93v-3.75c0-.19,0-.24-.18-.24s-.14,0-.22.13l-2.79,3.86v.29h2.47v.7c0,.29,0,.4-.69.4h-.21v.29c.42,0,1,0,1.25,0s.85,0,1.28,0V377h-.24c-.67,0-.67-.11-.67-.4v-.7Z" transform="translate(-286.99 -305.7)"/></g><g class="cls-27"><path class="cls-13" d="M482.56,343.07c0-.64-.32-.85-.53-.85a.65.65,0,0,0-.59.58c0,.16.06.22.19.35a1.34,1.34,0,0,1,.4,1c0,.5-.72,3.22-2.11,3.22-.61,0-.9-.4-.9-1a9.07,9.07,0,0,1,.69-2.5,1.25,1.25,0,0,0,.16-.62,1,1,0,0,0-1-1c-1.12,0-1.58,1.73-1.58,1.84s.14.13.14.13.13,0,.21-.21c.35-1.2.85-1.49,1.2-1.49.08,0,.29,0,.29.39a2.46,2.46,0,0,1-.21.83,7.57,7.57,0,0,0-.67,2.45,1.41,1.41,0,0,0,1.6,1.46c2,0,2.69-3.94,2.69-4.55" transform="translate(-286.99 -305.7)"/><path class="cls-13" d="M484.08,344.62a3.13,3.13,0,0,0,.8.1,2,2,0,0,0,1.78-.88.12.12,0,0,0-.11-.13l-.08,0a3.18,3.18,0,0,1-1.25.24,3,3,0,0,1-1.22-.22l-.11-.05c-.13,0-.13.11-.13.24v2.48c0,.13,0,.24.13.24s.11,0,.19-.11a1.37,1.37,0,0,1,1.17-.53.88.88,0,0,1,.77.48,2.18,2.18,0,0,1,.19,1.06,2.07,2.07,0,0,1-.24,1.12,1.18,1.18,0,0,1-1,.51,1.4,1.4,0,0,1-1.33-.86.43.43,0,1,0,.08-.85.41.41,0,0,0-.42.45,1.61,1.61,0,0,0,1.7,1.52,1.93,1.93,0,0,0,2-1.84,1.79,1.79,0,0,0-1.76-1.83,1.84,1.84,0,0,0-1.17.4v-1.57" transform="translate(-286.99 -305.7)"/></g><g class="cls-28"><path class="cls-13" d="M471.22,323.78c0-.64-.32-.85-.53-.85a.65.65,0,0,0-.59.58c0,.16,0,.22.19.35a1.34,1.34,0,0,1,.4,1c0,.51-.72,3.23-2.11,3.23-.61,0-.9-.4-.9-1a8.87,8.87,0,0,1,.69-2.51,1.18,1.18,0,0,0,.16-.61,1,1,0,0,0-1-1c-1.11,0-1.57,1.73-1.57,1.83a.14.14,0,0,0,.14.14c.13,0,.13,0,.21-.22.34-1.19.85-1.49,1.2-1.49.08,0,.29,0,.29.4a2.59,2.59,0,0,1-.21.83,7.57,7.57,0,0,0-.67,2.45,1.41,1.41,0,0,0,1.6,1.46c2,0,2.69-3.94,2.69-4.55" transform="translate(-286.99 -305.7)"/><path class="cls-13" d="M473.83,329.9a1,1,0,0,1-.93-.61,3.08,3.08,0,0,1-.19-1.17c0-.83.48-1.44,1.17-1.44a.93.93,0,0,1,.85.45,2.17,2.17,0,0,1,.22,1.17,1.76,1.76,0,0,1-.24,1.15,1,1,0,0,1-.88.45m-1.15-2.63a3.44,3.44,0,0,1,.38-1.84,1.52,1.52,0,0,1,1.27-.75,1,1,0,0,1,.78.3.39.39,0,0,0-.4.4.39.39,0,0,0,.4.4.38.38,0,0,0,.39-.43c0-.48-.34-.93-1.17-.93a2.69,2.69,0,0,0-2.45,2.93c0,2.18,1,2.82,1.95,2.82a1.86,1.86,0,0,0,1.91-1.87,1.82,1.82,0,0,0-1.83-1.86A1.36,1.36,0,0,0,472.68,327.27Z" transform="translate(-286.99 -305.7)"/></g><text class="cls-29" transform="translate(133.8 97.78)">1</text><text class="cls-29" transform="translate(201.58 71.34)">2</text><text class="cls-29" transform="translate(204.33 43.3)">1</text><path class="cls-11" d="M391.67,378.59" transform="translate(-286.99 -305.7)"/><text class="cls-30" transform="translate(119.13 16.37)">nghCount</text><text class="cls-31" transform="translate(72.68 108.07)">(1)</text><text class="cls-31" transform="translate(187.06 108.07)">(2)</text></svg>