<svg id="Layer_1" data-name="Layer 1" xmlns="http://www.w3.org/2000/svg" xmlns:xlink="http://www.w3.org/1999/xlink" viewBox="0 0 391.25 220.47"><defs><style>.cls-1,.cls-10,.cls-11,.cls-8,.cls-9{fill:none;}.cls-2{fill:#f2f2f2;}.cls-3{fill:#3f3d56;}.cls-4{opacity:0.2;isolation:isolate;}.cls-5{fill:#606060;}.cls-6{fill:#2b8555;}.cls-7{fill:#3ca853;}.cls-8{stroke:#bc1b47;}.cls-10,.cls-11,.cls-12,.cls-8,.cls-9{stroke-width:4px;}.cls-9{stroke:#fff;}.cls-10{stroke:#f8c20f;}.cls-11{stroke:#1c7fb6;}.cls-12{fill:#fff;stroke:#000;}.cls-13{clip-path:url(#clip-path);}.cls-14{fill:#333;}.cls-15{clip-path:url(#clip-path-2);}</style><clipPath id="clip-path" transform="translate(-48.59 -199.2)"><rect class="cls-1" x="48.24" y="205.27" width="185" height="25"/></clipPath><clipPath id="clip-path-2" transform="translate(-48.59 -199.2)"><rect class="cls-1" x="253.44" y="203.27" width="187" height="29"/></clipPath></defs><title>graph-figure-2</title><circle class="cls-2" cx="110.14" cy="106.74" r="106.74"/><ellipse class="cls-3" cx="189.28" cy="211.32" rx="170.92" ry="9.14"/><ellipse class="cls-4" cx="188.95" cy="208.5" rx="152.96" ry="7.32"/><rect class="cls-3" x="46.96" y="50.71" width="279.33" height="16.63"/><path class="cls-3" d="M95.55,401.65a7.21,7.21,0,0,0,7.21,7.21H367.67a7.21,7.21,0,0,0,7.21-7.21h0V258.22H95.55Z" transform="translate(-48.59 -199.2)"/><path class="cls-3" d="M367.67,238.27H102.75a7.21,7.21,0,0,0-7.21,7.21h0v12.75H374.87V245.48a7.21,7.21,0,0,0-7.21-7.21Z" transform="translate(-48.59 -199.2)"/><path class="cls-4" d="M367.67,238.27H102.75a7.21,7.21,0,0,0-7.21,7.21h0v12.75H374.87V245.48a7.21,7.21,0,0,0-7.21-7.21Z" transform="translate(-48.59 -199.2)"/><circle class="cls-3" cx="63.59" cy="49.05" r="4.32"/><circle class="cls-3" cx="75.56" cy="49.05" r="4.32"/><circle class="cls-3" cx="87.53" cy="49.05" r="4.32"/><rect class="cls-5" x="59.26" y="71" width="112.06" height="128.36" rx="1.77" ry="1.77"/><rect class="cls-6" x="203.92" y="90.61" width="94.44" height="7.32" rx="1.82" ry="1.82"/><rect class="cls-6" x="181.97" y="117.22" width="138.33" height="4.99" rx="1.82" ry="1.82"/><rect class="cls-6" x="181.97" y="131.85" width="138.33" height="4.99" rx="1.82" ry="1.82"/><rect class="cls-6" x="181.97" y="146.48" width="138.33" height="4.99" rx="1.82" ry="1.82"/><rect class="cls-6" x="181.97" y="161.11" width="138.33" height="4.99" rx="1.82" ry="1.82"/><rect class="cls-7" x="291.04" y="183.72" width="29.26" height="8.65" rx="2.34" ry="2.34"/><line class="cls-8" x1="114.63" y1="157.43" x2="114.63" y2="172.21"/><line class="cls-8" x1="96.3" y1="125.67" x2="83.5" y2="118.28"/><line class="cls-8" x1="132.96" y1="125.67" x2="145.76" y2="118.28"/><path class="cls-8" d="M149.61,351.67a41.71,41.71,0,0,0-7.24-12.54" transform="translate(-48.59 -199.2)"/><path class="cls-8" d="M156,315.56a41.71,41.71,0,0,0,14.48,0" transform="translate(-48.59 -199.2)"/><path class="cls-8" d="M184.07,339.13a41.7,41.7,0,0,0-7.24,12.54" transform="translate(-48.59 -199.2)"/><path class="cls-8" d="M150.92,301.67a24.59,24.59,0,0,0-23.11,40" transform="translate(-48.59 -199.2)"/><path class="cls-8" d="M198.62,341.7a24.59,24.59,0,0,0-23.11-40" transform="translate(-48.59 -199.2)"/><path class="cls-8" d="M140.11,363a24.59,24.59,0,0,0,46.22,0" transform="translate(-48.59 -199.2)"/><path class="cls-9" d="M127.81,341.7a24.6,24.6,0,0,0,35.41,29.71" transform="translate(-48.59 -199.2)"/><path class="cls-9" d="M175.51,301.67a24.59,24.59,0,0,0-43.43,15.81" transform="translate(-48.59 -199.2)"/><path class="cls-9" d="M186.33,363a24.59,24.59,0,0,0,8-45.51" transform="translate(-48.59 -199.2)"/><line class="cls-10" x1="101.02" y1="152.47" x2="91.52" y2="163.79"/><line class="cls-11" x1="93.78" y1="139.93" x2="79.22" y2="142.5"/><line class="cls-10" x1="107.39" y1="116.36" x2="102.33" y2="102.47"/><line class="cls-11" x1="121.87" y1="116.36" x2="126.93" y2="102.47"/><line class="cls-10" x1="135.48" y1="139.93" x2="150.04" y2="142.5"/><line class="cls-11" x1="128.24" y1="152.47" x2="137.74" y2="163.79"/><path class="cls-11" d="M163.22,356.62a41.71,41.71,0,0,0-13.61-5" transform="translate(-48.59 -199.2)"/><path class="cls-10" d="M142.36,339.13a41.69,41.69,0,0,0,2.52-14.26" transform="translate(-48.59 -199.2)"/><path class="cls-11" d="M144.88,324.87A41.71,41.71,0,0,0,156,315.56" transform="translate(-48.59 -199.2)"/><path class="cls-10" d="M170.46,315.56a41.71,41.71,0,0,0,11.09,9.31" transform="translate(-48.59 -199.2)"/><path class="cls-11" d="M181.55,324.87a41.69,41.69,0,0,0,2.52,14.26" transform="translate(-48.59 -199.2)"/><path class="cls-10" d="M176.83,351.67a41.71,41.71,0,0,0-13.61,5" transform="translate(-48.59 -199.2)"/><path class="cls-10" d="M127.81,341.7a24.6,24.6,0,0,0,35.41,29.71" transform="translate(-48.59 -199.2)"/><path class="cls-10" d="M175.51,301.67a24.59,24.59,0,0,0-43.43,15.81" transform="translate(-48.59 -199.2)"/><path class="cls-10" d="M186.33,363a24.59,24.59,0,0,0,8-45.51" transform="translate(-48.59 -199.2)"/><path class="cls-9" d="M194.35,317.48a24.59,24.59,0,0,0-43.43-15.81" transform="translate(-48.59 -199.2)"/><path class="cls-11" d="M194.35,317.48a24.59,24.59,0,0,0-43.43-15.81" transform="translate(-48.59 -199.2)"/><path class="cls-9" d="M132.08,317.48a24.59,24.59,0,0,0,8,45.51" transform="translate(-48.59 -199.2)"/><path class="cls-9" d="M163.22,371.4a24.59,24.59,0,0,0,35.41-29.71" transform="translate(-48.59 -199.2)"/><path class="cls-11" d="M132.08,317.48a24.59,24.59,0,0,0,8,45.51" transform="translate(-48.59 -199.2)"/><path class="cls-11" d="M163.22,371.4a24.59,24.59,0,0,0,35.41-29.71" transform="translate(-48.59 -199.2)"/><circle class="cls-12" cx="114.63" cy="157.43" r="2.96"/><circle class="cls-12" cx="101.02" cy="152.47" r="2.96"/><circle class="cls-12" cx="93.78" cy="139.93" r="2.96"/><circle class="cls-12" cx="96.3" cy="125.67" r="2.96"/><circle class="cls-12" cx="107.39" cy="116.36" r="2.96"/><circle class="cls-12" cx="121.87" cy="116.36" r="2.96"/><circle class="cls-12" cx="132.96" cy="125.67" r="2.96"/><circle class="cls-12" cx="135.48" cy="139.93" r="2.96"/><circle class="cls-12" cx="128.24" cy="152.47" r="2.96"/><circle class="cls-12" cx="114.63" cy="172.21" r="2.96"/><circle class="cls-12" cx="91.52" cy="163.79" r="2.96"/><circle class="cls-12" cx="79.22" cy="142.5" r="2.96"/><circle class="cls-12" cx="83.5" cy="118.28" r="2.96"/><circle class="cls-12" cx="102.33" cy="102.47" r="2.96"/><circle class="cls-12" cx="126.93" cy="102.47" r="2.96"/><circle class="cls-12" cx="145.76" cy="118.28" r="2.96"/><circle class="cls-12" cx="149.79" cy="140.84" r="2.96"/><circle class="cls-12" cx="137.74" cy="163.79" r="2.96"/><g class="cls-13"><path class="cls-14" d="M70.39,207.63H68.66l-2.16,7.48c-.61,2.1-1.76,6.12-1.89,7.32h0a54.84,54.84,0,0,0-1.7-6.68l-2.34-8.12H58.6l-2.13,7.43a64.25,64.25,0,0,0-1.84,7.35h0c-.11-1-.75-3.3-.93-4.07l-1.12-4-1.92-6.71H48.59l4.82,16.54h1.94l2.37-8.28a64.13,64.13,0,0,0,1.68-6.52h0c.08.72.67,3,1.3,5.25l2.74,9.56h2.08l4.85-16.54" transform="translate(-48.59 -199.2)"/><path class="cls-14" d="M76.17,222.89c-1.65,0-3.36-1.33-3.36-4.21s1.81-4,3.36-4,3.38,1.22,3.38,4-1.62,4.21-3.38,4.21m5.25-4a5.26,5.26,0,1,0-10.46,0,5.24,5.24,0,1,0,10.46,0Z" transform="translate(-48.59 -199.2)"/><path class="cls-14" d="M85.28,219.06a4,4,0,0,1,4-4.13v-1.6a4.86,4.86,0,0,0-4.15,2.26v-2.16H83.49v10.73h1.78v-5.11" transform="translate(-48.59 -199.2)"/><polyline class="cls-14" points="47.74 18.47 51.76 14.37 49.61 14.37 44.76 19.35 44.76 8.44 43.06 8.44 43.06 24.97 44.71 24.97 44.71 21.62 46.6 19.62 50.33 24.97 52.3 24.97 47.74 18.47"/><path class="cls-14" d="M124.34,221c.35,0,.8,0,.8-.48s-.45-.48-.83-.48H110.09c-.37,0-.83,0-.83.48s.45.48.8.48h14.27m0-4.63c.37,0,.83,0,.83-.48s-.45-.48-.8-.48H110.07c-.35,0-.8,0-.8.48s.45.48.83.48Z" transform="translate(-48.59 -199.2)"/><path class="cls-14" d="M140.66,224.06c-2.37,0-4-1.92-4-5.06a14.92,14.92,0,0,1,2.18-7.32c1.65-2.48,4-3.73,5.86-3.73s4.1,1.33,4.1,4.9a14.47,14.47,0,0,1-3,8.36,7,7,0,0,1-5.09,2.85m10.22-10.28c0-3.86-2.53-6.42-6.1-6.42-5.14,0-10.39,5.41-10.39,11,0,3.94,2.66,6.36,6.1,6.36C145.56,224.7,150.89,219.48,150.89,213.78Z" transform="translate(-48.59 -199.2)"/><path class="cls-14" d="M160,229.89c0-.08,0-.13-.4-.53-3-3-3.73-7.51-3.73-11.16,0-4.15.91-8.28,3.83-11.26.29-.29.29-.35.29-.43a.21.21,0,0,0-.24-.24,10.43,10.43,0,0,0-3.78,4.66,18.4,18.4,0,0,0,.08,14.7,10.11,10.11,0,0,0,3.7,4.5.21.21,0,0,0,.24-.24" transform="translate(-48.59 -199.2)"/><path class="cls-14" d="M163.54,222.76c-.08.37-.21.91-.21,1a.64.64,0,0,0,.69.64,1,1,0,0,0,.88-.67c0-.05.32-1.17.45-1.78l.53-2.13c.13-.53.29-1.07.4-1.6l.32-1.2c.35-.75,1.6-2.9,3.89-2.9,1.06,0,1.28.88,1.28,1.68a8.29,8.29,0,0,1-.35,2l-.69,2.77-.45,1.81c-.11.48-.32,1.28-.32,1.41a.63.63,0,0,0,.69.64c.75,0,.88-.61,1.07-1.36.35-1.33,1.22-4.82,1.44-5.75.08-.32,1.33-3.17,3.94-3.17,1,0,1.28.8,1.28,1.68a20.89,20.89,0,0,1-1.49,5.33,3.24,3.24,0,0,0-.29,1.3,1.91,1.91,0,0,0,1.94,2c2.24,0,3.14-3.49,3.14-3.67s-.24-.24-.29-.24c-.24,0-.24.08-.37.43-.35,1.28-1.12,3-2.42,3-.4,0-.56-.24-.56-.77a4.59,4.59,0,0,1,.43-1.7,21.31,21.31,0,0,0,1.44-5.25,2.43,2.43,0,0,0-2.74-2.56,4.76,4.76,0,0,0-3.89,2.32,2.41,2.41,0,0,0-.75-1.7,3.18,3.18,0,0,0-2-.61,4.56,4.56,0,0,0-3.7,2.08,2.18,2.18,0,0,0-2.21-2.08,2,2,0,0,0-1.76,1.36,10.89,10.89,0,0,0-.75,2.32c0,.24.24.24.29.24.24,0,.27,0,.4-.56.4-1.68.88-2.82,1.76-2.82.37,0,.72.19.72,1.09a7,7,0,0,1-.37,2l-1.38,5.51" transform="translate(-48.59 -199.2)"/><path class="cls-14" d="M197.49,218.68h6.66c.32,0,.77,0,.77-.48s-.45-.48-.77-.48h-6.66V211c0-.32,0-.77-.48-.77s-.48.45-.48.77v6.68h-6.66c-.35,0-.8,0-.8.48s.45.48.8.48h6.66v6.68c0,.32,0,.77.48.77s.48-.45.48-.77v-6.68" transform="translate(-48.59 -199.2)"/><path class="cls-14" d="M213.73,222.76c-.05.37-.21.91-.21,1a.64.64,0,0,0,.69.64,1,1,0,0,0,.88-.67c0-.05.32-1.17.45-1.78l.53-2.13c.13-.53.29-1.07.4-1.6l.32-1.2c.35-.75,1.62-2.9,3.89-2.9,1.06,0,1.28.88,1.28,1.68,0,1.46-1.17,4.53-1.54,5.54a2.85,2.85,0,0,0-.24,1.09,1.92,1.92,0,0,0,2,2c2.24,0,3.12-3.49,3.12-3.67s-.21-.24-.29-.24c-.24,0-.24.08-.35.43-.48,1.62-1.28,3-2.45,3-.4,0-.56-.24-.56-.77a4.59,4.59,0,0,1,.43-1.7,21.3,21.3,0,0,0,1.44-5.25,2.42,2.42,0,0,0-2.72-2.56A4.57,4.57,0,0,0,217,215.7a2.16,2.16,0,0,0-2.18-2.08A2.09,2.09,0,0,0,213,215a12.91,12.91,0,0,0-.72,2.32c0,.24.24.24.29.24.24,0,.27,0,.4-.56.43-1.68.91-2.82,1.76-2.82.48,0,.75.32.75,1.09a7.44,7.44,0,0,1-.4,2l-1.39,5.51" transform="translate(-48.59 -199.2)"/><path class="cls-14" d="M232.93,218.2a17.4,17.4,0,0,0-1.57-7.43,10.47,10.47,0,0,0-3.73-4.5.24.24,0,0,0-.24.24c0,.08,0,.13.45.56,2.34,2.37,3.7,6.15,3.7,11.13,0,4.07-.88,8.28-3.83,11.29-.32.27-.32.32-.32.4a.24.24,0,0,0,.24.24,10.39,10.39,0,0,0,3.81-4.66,17.54,17.54,0,0,0,1.49-7.27" transform="translate(-48.59 -199.2)"/></g><g class="cls-15"><path class="cls-14" d="M256.08,224.62V210.75h3.65c3.33,0,5.83,2.9,5.83,7.08s-2.5,6.79-5.83,6.79h-3.65M254,209.42V226h6.28c4,0,7.3-3.62,7.3-8.12s-3.22-8.41-7.32-8.41Z" transform="translate(-48.59 -199.2)"/><path class="cls-14" d="M271.57,219.43c.37-1.81,1.62-3,3-3s2.58.83,2.9,3h-5.88m7.24,1.3a7.49,7.49,0,0,0-1-4,3.87,3.87,0,0,0-3.3-1.73c-2.64,0-4.79,2.53-4.79,5.59a5.39,5.39,0,0,0,5.17,5.64,6.66,6.66,0,0,0,3.78-1.22l-.13-1.54a5.88,5.88,0,0,1-3.62,1.33c-1.92,0-3.43-1.7-3.51-4Z" transform="translate(-48.59 -199.2)"/><path class="cls-14" d="M283.45,218a3.16,3.16,0,0,1,2.53-1.38c1.81,0,3.25,1.81,3.25,4,0,2.45-1.7,4.13-3.49,4.13a2.48,2.48,0,0,1-2.05-1.12,1.11,1.11,0,0,1-.24-.85V218m0,6.84a4.64,4.64,0,0,0,3.22,1.36c2.32,0,4.42-2.32,4.42-5.57,0-2.88-1.52-5.54-3.81-5.54a6,6,0,0,0-3.89,1.44v-1.17h-1.81v15.2h1.86Z" transform="translate(-48.59 -199.2)"/><path class="cls-14" d="M296.12,216.77h3.36v-1.38h-3.36v-3h-1.65v3H292.4v1.38h2v6.36c0,1.44.35,3.09,2,3.09a7.23,7.23,0,0,0,3.49-.91l-.37-1.41a3.43,3.43,0,0,1-2.16.8c-.88,0-1.2-.72-1.2-2v-6" transform="translate(-48.59 -199.2)"/><path class="cls-14" d="M310.9,218.87c0-1.6-.35-3.75-3.25-3.75a4.23,4.23,0,0,0-3.38,1.7v-7.4h-1.81V226h1.86v-5.83c0-1.57.61-3.54,2.42-3.54,2.29,0,2.29,1.68,2.29,2.45V226h1.86v-7.08" transform="translate(-48.59 -199.2)"/><path class="cls-14" d="M335.93,222.79c.35,0,.8,0,.8-.48s-.45-.48-.83-.48H321.69c-.35,0-.8,0-.8.48s.45.48.77.48h14.27m0-4.61c.37,0,.83,0,.83-.48s-.45-.48-.8-.48H321.66c-.32,0-.77,0-.77.48s.45.48.8.48Z" transform="translate(-48.59 -199.2)"/><path class="cls-14" d="M352.25,225.87c-2.37,0-4-1.94-4-5.09a14.88,14.88,0,0,1,2.16-7.32,7.56,7.56,0,0,1,5.86-3.7c2,0,4.1,1.33,4.1,4.87a14.53,14.53,0,0,1-3,8.36,7.09,7.09,0,0,1-5.11,2.88m10.22-10.3c0-3.83-2.53-6.42-6.07-6.42-5.17,0-10.41,5.41-10.41,11,0,4,2.69,6.36,6.12,6.36C357.15,226.49,362.48,221.27,362.48,215.57Z" transform="translate(-48.59 -199.2)"/><path class="cls-14" d="M371.64,231.68c0-.05,0-.11-.43-.51-3-3-3.73-7.51-3.73-11.16,0-4.15.91-8.31,3.83-11.29.32-.29.32-.32.32-.4a.22.22,0,0,0-.24-.24,10.42,10.42,0,0,0-3.81,4.63,17.65,17.65,0,0,0-1.49,7.3,17.47,17.47,0,0,0,1.57,7.43,10.29,10.29,0,0,0,3.73,4.47.21.21,0,0,0,.24-.24" transform="translate(-48.59 -199.2)"/><path class="cls-14" d="M377.26,209.42l-3.43.27v.75c1.68,0,1.86.16,1.86,1.33v12.38c0,1.09-.27,1.09-1.86,1.09V226c.8,0,2-.05,2.66-.05s1.76.05,2.64.05v-.72c-1.6,0-1.86,0-1.86-1.09V209.42" transform="translate(-48.59 -199.2)"/><path class="cls-14" d="M385.59,225.64a3.13,3.13,0,0,1-2.72-1.6,7.22,7.22,0,0,1-.59-3.36,7,7,0,0,1,.56-3.28,3.26,3.26,0,0,1,2.72-1.6,3.19,3.19,0,0,1,2.72,1.54,6.69,6.69,0,0,1,.61,3.33,7.2,7.2,0,0,1-.53,3.2,3.09,3.09,0,0,1-2.77,1.76m5.27-4.77a5.28,5.28,0,1,0-10.54,0,5.27,5.27,0,1,0,10.54,0Z" transform="translate(-48.59 -199.2)"/><path class="cls-14" d="M397.6,230.32c-2.4,0-4-1.2-4-2.48a2.11,2.11,0,0,1,1.94-2.05h1.41c2.05,0,4.71,0,4.71,2.05,0,1.28-1.68,2.48-4,2.48m-3.43-7.54a1.8,1.8,0,0,1,.4-1.12,4.12,4.12,0,0,0,2.37.75,3.7,3.7,0,0,0,3.86-3.49,3.2,3.2,0,0,0-1-2.32,3.15,3.15,0,0,1,2.16-.91h.24a.72.72,0,0,0,.29,1.36.7.7,0,0,0,.69-.72,1.14,1.14,0,0,0-1.2-1.17,3.61,3.61,0,0,0-2.53,1.12,3.9,3.9,0,0,0-2.53-.85,3.68,3.68,0,0,0-3.86,3.46,3.35,3.35,0,0,0,1.12,2.48,3.21,3.21,0,0,0-.74,2,2.55,2.55,0,0,0,1.06,2.13,2.68,2.68,0,0,0-2.21,2.37c0,1.73,2.37,3,5.27,3s5.3-1.22,5.3-3.09a3.08,3.08,0,0,0-1.54-2.72,8.55,8.55,0,0,0-4.1-.67c-.61,0-1.62,0-1.78,0A1.54,1.54,0,0,1,394.17,222.79Zm2.77-.93c-2.08,0-2.08-2.37-2.08-2.93a4,4,0,0,1,.37-2,2.1,2.1,0,0,1,1.7-1c2.08,0,2.08,2.4,2.08,2.93a3.84,3.84,0,0,1-.4,2A2.05,2.05,0,0,1,396.93,221.85Z" transform="translate(-48.59 -199.2)"/><path class="cls-14" d="M412.43,212.21h-.59a3.53,3.53,0,0,1-.43,1.52,8.2,8.2,0,0,1-1.65.11h-3.12c1.78-1.57,2.37-2,3.38-2.82,1.22-1,2.4-2.05,2.4-3.65,0-2-1.78-3.28-3.94-3.28a3.26,3.26,0,0,0-3.49,3,.87.87,0,0,0,.88,1,.89.89,0,0,0,.91-.91c0-.29-.13-.88-1-.88a2.68,2.68,0,0,1,2.48-1.57,2.51,2.51,0,0,1,2.56,2.66,5.09,5.09,0,0,1-1.6,3.25l-4,4c-.16.16-.16.19-.16.67h6.92l.51-3.06" transform="translate(-48.59 -199.2)"/><path class="cls-14" d="M420.74,224.57c-.08.35-.21.91-.21,1a.63.63,0,0,0,.69.64,1,1,0,0,0,.88-.67c0-.05.32-1.17.45-1.76l.53-2.16q.2-.76.4-1.6c.08-.4.29-1.09.32-1.17.35-.75,1.6-2.93,3.86-2.93,1.09,0,1.3.88,1.3,1.68,0,1.49-1.17,4.53-1.54,5.57a2.68,2.68,0,0,0-.24,1.09,1.89,1.89,0,0,0,1.94,1.94c2.24,0,3.12-3.46,3.12-3.67a.23.23,0,0,0-.27-.24c-.24,0-.24.08-.37.45-.48,1.6-1.25,3-2.42,3-.4,0-.59-.24-.59-.8a4.28,4.28,0,0,1,.45-1.7c.43-1.25,1.44-3.89,1.44-5.25,0-1.6-1-2.53-2.74-2.53a4.67,4.67,0,0,0-3.73,2.08,2.13,2.13,0,0,0-2.18-2.08,2.09,2.09,0,0,0-1.78,1.36,12.29,12.29,0,0,0-.72,2.32c0,.21.24.21.29.21.24,0,.27,0,.4-.53.4-1.7.88-2.85,1.73-2.85.48,0,.75.32.75,1.12a8.58,8.58,0,0,1-.37,2l-1.38,5.51" transform="translate(-48.59 -199.2)"/><path class="cls-14" d="M439.83,220a17.51,17.51,0,0,0-1.57-7.46,10.29,10.29,0,0,0-3.73-4.47.22.22,0,0,0-.24.24c0,.08,0,.11.45.53,2.34,2.37,3.7,6.15,3.7,11.16,0,4.07-.88,8.25-3.83,11.26-.32.29-.32.35-.32.4a.22.22,0,0,0,.24.24,10.42,10.42,0,0,0,3.81-4.63,17.62,17.62,0,0,0,1.49-7.27" transform="translate(-48.59 -199.2)"/></g></svg>